<svg version="1.1" xmlns="http://www.w3.org/2000/svg" xmlns:xlink="http://www.w3.org/1999/xlink" width="2212" height="972"><defs/><g><g transform="translate(-286,-110) scale(1,1)"><path fill="#C0C0C0" stroke="none" d="M 1431 225 L 2484 225 L 2484 1078 L 1431 1078" opacity="0.2"/></g><g transform="translate(-286,-110) scale(1,1)"><path fill="#C0C0C0" stroke="none" d="M 1431 225 L 1441 215 L 2494 215 L 2484 225" opacity="0.2"/></g><g transform="translate(-286,-110) scale(1,1)"><path fill="#C0C0C0" stroke="none" d="M 2494 215 L 2484 225 L 2484 1078 L 2494 1068" opacity="0.2"/></g><g transform="translate(-286,-110) scale(1,1)"><path fill="#ffffff" stroke="none" d="M 1424 218 L 2477 218 L 2477 1071 L 1424 1071"/></g><g transform="translate(-286,-110) scale(1,1)"><path fill="#ffffff" stroke="none" d="M 1424 218 L 1434 208 L 2487 208 L 2477 218"/></g><g transform="translate(-286,-110) scale(1,1)"><path fill="#ffffff" stroke="none" d="M 2487 208 L 2477 218 L 2477 1071 L 2487 1061"/></g><g transform="translate(-286,-110) scale(1,1)"><path fill="none" stroke="#000000" d="M 1424 218 L 2477 218 L 2477 1071 L 1424 1071 L 1424 218" stroke-miterlimit="10"/></g><g transform="translate(-286,-110) scale(1,1)"><path fill="none" stroke="#000000" d="M 1424 218 L 1434 208 L 2487 208 L 2477 218 L 1424 218" stroke-miterlimit="10"/></g><g transform="translate(-286,-110) scale(1,1)"><path fill="none" stroke="#000000" d="M 2487 208 L 2477 218 L 2477 1071 L 2487 1061 L 2487 208" stroke-miterlimit="10"/></g><g transform="translate(-286,-110) scale(1,1)"><g><path fill="none" stroke="none"/><text fill="#000000" stroke="none" font-family="Arial" font-size="13px" font-style="normal" font-weight="bold" text-decoration="none" x="1938.5" y="237.5">DC2</text></g></g><g transform="translate(-286,-110) scale(1,1)"><path fill="#C0C0C0" stroke="none" d="M 303 225 L 1348 225 L 1348 1078 L 303 1078" opacity="0.2"/></g><g transform="translate(-286,-110) scale(1,1)"><path fill="#C0C0C0" stroke="none" d="M 303 225 L 313 215 L 1358 215 L 1348 225" opacity="0.2"/></g><g transform="translate(-286,-110) scale(1,1)"><path fill="#C0C0C0" stroke="none" d="M 1358 215 L 1348 225 L 1348 1078 L 1358 1068" opacity="0.2"/></g><g transform="translate(-286,-110) scale(1,1)"><path fill="#ffffff" stroke="none" d="M 296 218 L 1341 218 L 1341 1071 L 296 1071"/></g><g transform="translate(-286,-110) scale(1,1)"><path fill="#ffffff" stroke="none" d="M 296 218 L 306 208 L 1351 208 L 1341 218"/></g><g transform="translate(-286,-110) scale(1,1)"><path fill="#ffffff" stroke="none" d="M 1351 208 L 1341 218 L 1341 1071 L 1351 1061"/></g><g transform="translate(-286,-110) scale(1,1)"><path fill="none" stroke="#000000" d="M 296 218 L 1341 218 L 1341 1071 L 296 1071 L 296 218" stroke-miterlimit="10"/></g><g transform="translate(-286,-110) scale(1,1)"><path fill="none" stroke="#000000" d="M 296 218 L 306 208 L 1351 208 L 1341 218 L 296 218" stroke-miterlimit="10"/></g><g transform="translate(-286,-110) scale(1,1)"><path fill="none" stroke="#000000" d="M 1351 208 L 1341 218 L 1341 1071 L 1351 1061 L 1351 208" stroke-miterlimit="10"/></g><g transform="translate(-286,-110) scale(1,1)"><g><path fill="none" stroke="none"/><text fill="#000000" stroke="none" font-family="Arial" font-size="13px" font-style="normal" font-weight="bold" text-decoration="none" x="806.5" y="237.5">DC1</text></g></g><g transform="translate(-286,-110) scale(1,1)"><path fill="none" stroke="#000000" d="M 874 680 L 580 866" stroke-miterlimit="10"/></g><g transform="translate(-286,-110) scale(1,1)"><path fill="none" stroke="#000000" d="M 396 875 L 712 768 L 869 680" stroke-miterlimit="10"/></g><g transform="translate(-286,-110) scale(1,1)"><path fill="#C0C0C0" stroke="none" d="M 751 257 L 825.28857421875 257 L 825.28857421875 293 L 751 293" opacity="0.2"/></g><g transform="translate(-286,-110) scale(1,1)"><path fill="#C0C0C0" stroke="none" d="M 751 257 L 761 247 L 835.28857421875 247 L 825.28857421875 257" opacity="0.2"/></g><g transform="translate(-286,-110) scale(1,1)"><path fill="#C0C0C0" stroke="none" d="M 835.28857421875 247 L 825.28857421875 257 L 825.28857421875 293 L 835.28857421875 283" opacity="0.2"/></g><g transform="translate(-286,-110) scale(1,1)"><path fill="#ffffff" stroke="none" d="M 744 250 L 818.28857421875 250 L 818.28857421875 286 L 744 286"/></g><g transform="translate(-286,-110) scale(1,1)"><path fill="#ffffff" stroke="none" d="M 744 250 L 754 240 L 828.28857421875 240 L 818.28857421875 250"/></g><g transform="translate(-286,-110) scale(1,1)"><path fill="#ffffff" stroke="none" d="M 828.28857421875 240 L 818.28857421875 250 L 818.28857421875 286 L 828.28857421875 276"/></g><g transform="translate(-286,-110) scale(1,1)"><path fill="none" stroke="#000000" d="M 744 250 L 818.28857421875 250 L 818.28857421875 286 L 744 286 L 744 250" stroke-miterlimit="10"/></g><g transform="translate(-286,-110) scale(1,1)"><path fill="none" stroke="#000000" d="M 744 250 L 754 240 L 828.28857421875 240 L 818.28857421875 250 L 744 250" stroke-miterlimit="10"/></g><g transform="translate(-286,-110) scale(1,1)"><path fill="none" stroke="#000000" d="M 828.28857421875 240 L 818.28857421875 250 L 818.28857421875 286 L 828.28857421875 276 L 828.28857421875 240" stroke-miterlimit="10"/></g><g transform="translate(-286,-110) scale(1,1)"><g><path fill="none" stroke="none"/><text fill="#000000" stroke="none" font-family="Arial" font-size="13px" font-style="normal" font-weight="normal" text-decoration="none" x="749.144287109375" y="267.5">«Gateway»</text></g></g><g transform="translate(-286,-110) scale(1,1)"><g><path fill="none" stroke="none"/><text fill="#000000" stroke="none" font-family="Arial" font-size="13px" font-style="normal" font-weight="bold" text-decoration="none" x="766.144287109375" y="282.5">nginx</text></g></g><g transform="translate(-286,-110) scale(1,1)"><path fill="#C0C0C0" stroke="none" d="M 495 385 L 543 385 L 543 418 L 495 418" opacity="0.2"/></g><g transform="translate(-286,-110) scale(1,1)"><path fill="#C0C0C0" stroke="none" d="M 495 385 L 505 375 L 553 375 L 543 385" opacity="0.2"/></g><g transform="translate(-286,-110) scale(1,1)"><path fill="#C0C0C0" stroke="none" d="M 553 375 L 543 385 L 543 418 L 553 408" opacity="0.2"/></g><g transform="translate(-286,-110) scale(1,1)"><path fill="#ffffff" stroke="none" d="M 488 378 L 536 378 L 536 411 L 488 411"/></g><g transform="translate(-286,-110) scale(1,1)"><path fill="#ffffff" stroke="none" d="M 488 378 L 498 368 L 546 368 L 536 378"/></g><g transform="translate(-286,-110) scale(1,1)"><path fill="#ffffff" stroke="none" d="M 546 368 L 536 378 L 536 411 L 546 401"/></g><g transform="translate(-286,-110) scale(1,1)"><path fill="none" stroke="#000000" d="M 488 378 L 536 378 L 536 411 L 488 411 L 488 378" stroke-miterlimit="10"/></g><g transform="translate(-286,-110) scale(1,1)"><path fill="none" stroke="#000000" d="M 488 378 L 498 368 L 546 368 L 536 378 L 488 378" stroke-miterlimit="10"/></g><g transform="translate(-286,-110) scale(1,1)"><path fill="none" stroke="#000000" d="M 546 368 L 536 378 L 536 411 L 546 401 L 546 368" stroke-miterlimit="10"/></g><g transform="translate(-286,-110) scale(1,1)"><g><path fill="none" stroke="none"/><text fill="#000000" stroke="none" font-family="Arial" font-size="13px" font-style="normal" font-weight="bold" text-decoration="none" x="501.5" y="397.5">API</text></g></g><g transform="translate(-286,-110) scale(1,1)"><path fill="#C0C0C0" stroke="none" d="M 415 681 L 537 681 L 537 714 L 415 714" opacity="0.2"/></g><g transform="translate(-286,-110) scale(1,1)"><path fill="#C0C0C0" stroke="none" d="M 415 681 L 425 671 L 547 671 L 537 681" opacity="0.2"/></g><g transform="translate(-286,-110) scale(1,1)"><path fill="#C0C0C0" stroke="none" d="M 547 671 L 537 681 L 537 714 L 547 704" opacity="0.2"/></g><g transform="translate(-286,-110) scale(1,1)"><path fill="#ffffff" stroke="none" d="M 408 674 L 530 674 L 530 707 L 408 707"/></g><g transform="translate(-286,-110) scale(1,1)"><path fill="#ffffff" stroke="none" d="M 408 674 L 418 664 L 540 664 L 530 674"/></g><g transform="translate(-286,-110) scale(1,1)"><path fill="#ffffff" stroke="none" d="M 540 664 L 530 674 L 530 707 L 540 697"/></g><g transform="translate(-286,-110) scale(1,1)"><path fill="none" stroke="#000000" d="M 408 674 L 530 674 L 530 707 L 408 707 L 408 674" stroke-miterlimit="10"/></g><g transform="translate(-286,-110) scale(1,1)"><path fill="none" stroke="#000000" d="M 408 674 L 418 664 L 540 664 L 530 674 L 408 674" stroke-miterlimit="10"/></g><g transform="translate(-286,-110) scale(1,1)"><path fill="none" stroke="#000000" d="M 540 664 L 530 674 L 530 707 L 540 697 L 540 664" stroke-miterlimit="10"/></g><g transform="translate(-286,-110) scale(1,1)"><g><path fill="none" stroke="none"/><text fill="#000000" stroke="none" font-family="Arial" font-size="13px" font-style="normal" font-weight="bold" text-decoration="none" x="440.5" y="693.5">Scheduler</text></g></g><g transform="translate(-286,-110) scale(1,1)"><path fill="#C0C0C0" stroke="none" d="M 999 569 L 1082 569 L 1082 605 L 999 605" opacity="0.2"/></g><g transform="translate(-286,-110) scale(1,1)"><path fill="#C0C0C0" stroke="none" d="M 999 569 L 1009 559 L 1092 559 L 1082 569" opacity="0.2"/></g><g transform="translate(-286,-110) scale(1,1)"><path fill="#C0C0C0" stroke="none" d="M 1092 559 L 1082 569 L 1082 605 L 1092 595" opacity="0.2"/></g><g transform="translate(-286,-110) scale(1,1)"><path fill="#ffffff" stroke="none" d="M 992 562 L 1075 562 L 1075 598 L 992 598"/></g><g transform="translate(-286,-110) scale(1,1)"><path fill="#ffffff" stroke="none" d="M 992 562 L 1002 552 L 1085 552 L 1075 562"/></g><g transform="translate(-286,-110) scale(1,1)"><path fill="#ffffff" stroke="none" d="M 1085 552 L 1075 562 L 1075 598 L 1085 588"/></g><g transform="translate(-286,-110) scale(1,1)"><path fill="none" stroke="#000000" d="M 992 562 L 1075 562 L 1075 598 L 992 598 L 992 562" stroke-miterlimit="10"/></g><g transform="translate(-286,-110) scale(1,1)"><path fill="none" stroke="#000000" d="M 992 562 L 1002 552 L 1085 552 L 1075 562 L 992 562" stroke-miterlimit="10"/></g><g transform="translate(-286,-110) scale(1,1)"><path fill="none" stroke="#000000" d="M 1085 552 L 1075 562 L 1075 598 L 1085 588 L 1085 552" stroke-miterlimit="10"/></g><g transform="translate(-286,-110) scale(1,1)"><g><path fill="none" stroke="none"/><text fill="#000000" stroke="none" font-family="Arial" font-size="13px" font-style="normal" font-weight="normal" text-decoration="none" x="1018" y="579.5">«DB»</text></g></g><g transform="translate(-286,-110) scale(1,1)"><g><path fill="none" stroke="none"/><text fill="#000000" stroke="none" font-family="Arial" font-size="13px" font-style="normal" font-weight="bold" text-decoration="none" x="998.5" y="594.5">PostgreSQL</text></g></g><g transform="translate(-286,-110) scale(1,1)"><path fill="none" stroke="#000000" d="M 743 283 L 548 375" stroke-miterlimit="10"/></g><g transform="translate(-286,-110) scale(1,1)"><path fill="#C0C0C0" stroke="none" d="M 1015 313 L 1108.6552734375 313 L 1108.6552734375 346 L 1015 346" opacity="0.2"/></g><g transform="translate(-286,-110) scale(1,1)"><path fill="#C0C0C0" stroke="none" d="M 1015 313 L 1025 303 L 1118.6552734375 303 L 1108.6552734375 313" opacity="0.2"/></g><g transform="translate(-286,-110) scale(1,1)"><path fill="#C0C0C0" stroke="none" d="M 1118.6552734375 303 L 1108.6552734375 313 L 1108.6552734375 346 L 1118.6552734375 336" opacity="0.2"/></g><g transform="translate(-286,-110) scale(1,1)"><path fill="#ffffff" stroke="none" d="M 1008 306 L 1101.6552734375 306 L 1101.6552734375 339 L 1008 339"/></g><g transform="translate(-286,-110) scale(1,1)"><path fill="#ffffff" stroke="none" d="M 1008 306 L 1018 296 L 1111.6552734375 296 L 1101.6552734375 306"/></g><g transform="translate(-286,-110) scale(1,1)"><path fill="#ffffff" stroke="none" d="M 1111.6552734375 296 L 1101.6552734375 306 L 1101.6552734375 339 L 1111.6552734375 329"/></g><g transform="translate(-286,-110) scale(1,1)"><path fill="none" stroke="#000000" d="M 1008 306 L 1101.6552734375 306 L 1101.6552734375 339 L 1008 339 L 1008 306" stroke-miterlimit="10"/></g><g transform="translate(-286,-110) scale(1,1)"><path fill="none" stroke="#000000" d="M 1008 306 L 1018 296 L 1111.6552734375 296 L 1101.6552734375 306 L 1008 306" stroke-miterlimit="10"/></g><g transform="translate(-286,-110) scale(1,1)"><path fill="none" stroke="#000000" d="M 1111.6552734375 296 L 1101.6552734375 306 L 1101.6552734375 339 L 1111.6552734375 329 L 1111.6552734375 296" stroke-miterlimit="10"/></g><g transform="translate(-286,-110) scale(1,1)"><g><path fill="none" stroke="none"/><text fill="#000000" stroke="none" font-family="Arial" font-size="13px" font-style="normal" font-weight="bold" text-decoration="none" x="1019.32763671875" y="325.5">Notifications</text></g></g><g transform="translate(-286,-110) scale(1,1)"><path fill="#C0C0C0" stroke="none" d="M 975 385 L 1127.84130859375 385 L 1127.84130859375 418 L 975 418" opacity="0.2"/></g><g transform="translate(-286,-110) scale(1,1)"><path fill="#C0C0C0" stroke="none" d="M 975 385 L 985 375 L 1137.84130859375 375 L 1127.84130859375 385" opacity="0.2"/></g><g transform="translate(-286,-110) scale(1,1)"><path fill="#C0C0C0" stroke="none" d="M 1137.84130859375 375 L 1127.84130859375 385 L 1127.84130859375 418 L 1137.84130859375 408" opacity="0.2"/></g><g transform="translate(-286,-110) scale(1,1)"><path fill="#ffffff" stroke="none" d="M 968 378 L 1120.84130859375 378 L 1120.84130859375 411 L 968 411"/></g><g transform="translate(-286,-110) scale(1,1)"><path fill="#ffffff" stroke="none" d="M 968 378 L 978 368 L 1130.84130859375 368 L 1120.84130859375 378"/></g><g transform="translate(-286,-110) scale(1,1)"><path fill="#ffffff" stroke="none" d="M 1130.84130859375 368 L 1120.84130859375 378 L 1120.84130859375 411 L 1130.84130859375 401"/></g><g transform="translate(-286,-110) scale(1,1)"><path fill="none" stroke="#000000" d="M 968 378 L 1120.84130859375 378 L 1120.84130859375 411 L 968 411 L 968 378" stroke-miterlimit="10"/></g><g transform="translate(-286,-110) scale(1,1)"><path fill="none" stroke="#000000" d="M 968 378 L 978 368 L 1130.84130859375 368 L 1120.84130859375 378 L 968 378" stroke-miterlimit="10"/></g><g transform="translate(-286,-110) scale(1,1)"><path fill="none" stroke="#000000" d="M 1130.84130859375 368 L 1120.84130859375 378 L 1120.84130859375 411 L 1130.84130859375 401 L 1130.84130859375 368" stroke-miterlimit="10"/></g><g transform="translate(-286,-110) scale(1,1)"><g><path fill="none" stroke="none"/><text fill="#000000" stroke="none" font-family="Arial" font-size="13px" font-style="normal" font-weight="bold" text-decoration="none" x="980.420654296875" y="397.5">Redis Shared Memory</text></g></g><g transform="translate(-286,-110) scale(1,1)"><path fill="none" stroke="#000000" d="M 830 272 L 1007 307" stroke-miterlimit="10"/></g><g transform="translate(-286,-110) scale(1,1)"><path fill="none" stroke="#000000" d="M 1056 341 L 1053 367" stroke-miterlimit="10"/></g><g transform="translate(-286,-110) scale(1,1)"><path fill="#C0C0C0" stroke="none" d="M 847 649 L 983.6611328125 649 L 983.6611328125 685 L 847 685" opacity="0.2"/></g><g transform="translate(-286,-110) scale(1,1)"><path fill="#C0C0C0" stroke="none" d="M 847 649 L 857 639 L 993.6611328125 639 L 983.6611328125 649" opacity="0.2"/></g><g transform="translate(-286,-110) scale(1,1)"><path fill="#C0C0C0" stroke="none" d="M 993.6611328125 639 L 983.6611328125 649 L 983.6611328125 685 L 993.6611328125 675" opacity="0.2"/></g><g transform="translate(-286,-110) scale(1,1)"><path fill="#ffffff" stroke="none" d="M 840 642 L 976.6611328125 642 L 976.6611328125 678 L 840 678"/></g><g transform="translate(-286,-110) scale(1,1)"><path fill="#ffffff" stroke="none" d="M 840 642 L 850 632 L 986.6611328125 632 L 976.6611328125 642"/></g><g transform="translate(-286,-110) scale(1,1)"><path fill="#ffffff" stroke="none" d="M 986.6611328125 632 L 976.6611328125 642 L 976.6611328125 678 L 986.6611328125 668"/></g><g transform="translate(-286,-110) scale(1,1)"><path fill="none" stroke="#000000" d="M 840 642 L 976.6611328125 642 L 976.6611328125 678 L 840 678 L 840 642" stroke-miterlimit="10"/></g><g transform="translate(-286,-110) scale(1,1)"><path fill="none" stroke="#000000" d="M 840 642 L 850 632 L 986.6611328125 632 L 976.6611328125 642 L 840 642" stroke-miterlimit="10"/></g><g transform="translate(-286,-110) scale(1,1)"><path fill="none" stroke="#000000" d="M 986.6611328125 632 L 976.6611328125 642 L 976.6611328125 678 L 986.6611328125 668 L 986.6611328125 632" stroke-miterlimit="10"/></g><g transform="translate(-286,-110) scale(1,1)"><g><path fill="none" stroke="none"/><text fill="#000000" stroke="none" font-family="Arial" font-size="13px" font-style="normal" font-weight="normal" text-decoration="none" x="861.83056640625" y="659.5">«Message Bus»</text></g></g><g transform="translate(-286,-110) scale(1,1)"><g><path fill="none" stroke="none"/><text fill="#000000" stroke="none" font-family="Arial" font-size="13px" font-style="normal" font-weight="bold" text-decoration="none" x="879.83056640625" y="674.5">RabbitMQ</text></g></g><g transform="translate(-286,-110) scale(1,1)"><path fill="#C0C0C0" stroke="none" d="M 423 617 L 545 617 L 545 653 L 423 653" opacity="0.2"/></g><g transform="translate(-286,-110) scale(1,1)"><path fill="#C0C0C0" stroke="none" d="M 423 617 L 433 607 L 555 607 L 545 617" opacity="0.2"/></g><g transform="translate(-286,-110) scale(1,1)"><path fill="#C0C0C0" stroke="none" d="M 555 607 L 545 617 L 545 653 L 555 643" opacity="0.2"/></g><g transform="translate(-286,-110) scale(1,1)"><path fill="#ffffff" stroke="none" d="M 416 610 L 538 610 L 538 646 L 416 646"/></g><g transform="translate(-286,-110) scale(1,1)"><path fill="#ffffff" stroke="none" d="M 416 610 L 426 600 L 548 600 L 538 610"/></g><g transform="translate(-286,-110) scale(1,1)"><path fill="#ffffff" stroke="none" d="M 548 600 L 538 610 L 538 646 L 548 636"/></g><g transform="translate(-286,-110) scale(1,1)"><path fill="none" stroke="#000000" d="M 416 610 L 538 610 L 538 646 L 416 646 L 416 610" stroke-miterlimit="10"/></g><g transform="translate(-286,-110) scale(1,1)"><path fill="none" stroke="#000000" d="M 416 610 L 426 600 L 548 600 L 538 610 L 416 610" stroke-miterlimit="10"/></g><g transform="translate(-286,-110) scale(1,1)"><path fill="none" stroke="#000000" d="M 548 600 L 538 610 L 538 646 L 548 636 L 548 600" stroke-miterlimit="10"/></g><g transform="translate(-286,-110) scale(1,1)"><g><path fill="none" stroke="none"/><text fill="#000000" stroke="none" font-family="Arial" font-size="13px" font-style="normal" font-weight="bold" text-decoration="none" x="448.5" y="629.5">Scheduler</text></g></g><g transform="translate(-286,-110) scale(1,1)"><path fill="none" stroke="#000000" d="M 548 407 L 680 480 L 840 544 L 991 568" stroke-miterlimit="10"/></g><g transform="translate(-286,-110) scale(1,1)"><path fill="none" stroke="#000000" d="M 548 411 L 877 631" stroke-miterlimit="10"/></g><g transform="translate(-286,-110) scale(1,1)"><path fill="#C0C0C0" stroke="none" d="M 631 609 L 704.40625 609 L 704.40625 645 L 631 645" opacity="0.2"/></g><g transform="translate(-286,-110) scale(1,1)"><path fill="#C0C0C0" stroke="none" d="M 631 609 L 641 599 L 714.40625 599 L 704.40625 609" opacity="0.2"/></g><g transform="translate(-286,-110) scale(1,1)"><path fill="#C0C0C0" stroke="none" d="M 714.40625 599 L 704.40625 609 L 704.40625 645 L 714.40625 635" opacity="0.2"/></g><g transform="translate(-286,-110) scale(1,1)"><path fill="#ffffff" stroke="none" d="M 624 602 L 697.40625 602 L 697.40625 638 L 624 638"/></g><g transform="translate(-286,-110) scale(1,1)"><path fill="#ffffff" stroke="none" d="M 624 602 L 634 592 L 707.40625 592 L 697.40625 602"/></g><g transform="translate(-286,-110) scale(1,1)"><path fill="#ffffff" stroke="none" d="M 707.40625 592 L 697.40625 602 L 697.40625 638 L 707.40625 628"/></g><g transform="translate(-286,-110) scale(1,1)"><path fill="none" stroke="#000000" d="M 624 602 L 697.40625 602 L 697.40625 638 L 624 638 L 624 602" stroke-miterlimit="10"/></g><g transform="translate(-286,-110) scale(1,1)"><path fill="none" stroke="#000000" d="M 624 602 L 634 592 L 707.40625 592 L 697.40625 602 L 624 602" stroke-miterlimit="10"/></g><g transform="translate(-286,-110) scale(1,1)"><path fill="none" stroke="#000000" d="M 707.40625 592 L 697.40625 602 L 697.40625 638 L 707.40625 628 L 707.40625 592" stroke-miterlimit="10"/></g><g transform="translate(-286,-110) scale(1,1)"><g><path fill="none" stroke="none"/><text fill="#000000" stroke="none" font-family="Arial" font-size="13px" font-style="normal" font-weight="normal" text-decoration="none" x="634.703125" y="619.5">«Leader»</text></g></g><g transform="translate(-286,-110) scale(1,1)"><g><path fill="none" stroke="none"/><text fill="#000000" stroke="none" font-family="Arial" font-size="13px" font-style="normal" font-weight="bold" text-decoration="none" x="632.203125" y="634.5">Scheduler</text></g></g><g transform="translate(-286,-110) scale(1,1)"><path fill="none" stroke="#000000" d="M 550 620 L 623 617" stroke-miterlimit="10"/></g><g transform="translate(-286,-110) scale(1,1)"><path fill="none" stroke="#000000" d="M 479 648 L 477 663" stroke-miterlimit="10"/></g><g transform="translate(-286,-110) scale(1,1)"><path fill="none" stroke="#000000" d="M 536 663 L 623 631" stroke-miterlimit="10"/></g><g transform="translate(-286,-110) scale(1,1)"><path fill="none" stroke="#000000" d="M 839 643 L 709 622" stroke-miterlimit="10"/></g><g transform="translate(-286,-110) scale(1,1)"><path fill="none" stroke="#000000" d="M 545 413 L 648 499 L 662 591" stroke-miterlimit="10"/></g><g transform="translate(-286,-110) scale(1,1)"><path fill="#C0C0C0" stroke="none" d="M 343 881 L 391 881 L 391 914 L 343 914" opacity="0.2"/></g><g transform="translate(-286,-110) scale(1,1)"><path fill="#C0C0C0" stroke="none" d="M 343 881 L 353 871 L 401 871 L 391 881" opacity="0.2"/></g><g transform="translate(-286,-110) scale(1,1)"><path fill="#C0C0C0" stroke="none" d="M 401 871 L 391 881 L 391 914 L 401 904" opacity="0.2"/></g><g transform="translate(-286,-110) scale(1,1)"><path fill="#ffffff" stroke="none" d="M 336 874 L 384 874 L 384 907 L 336 907"/></g><g transform="translate(-286,-110) scale(1,1)"><path fill="#ffffff" stroke="none" d="M 336 874 L 346 864 L 394 864 L 384 874"/></g><g transform="translate(-286,-110) scale(1,1)"><path fill="#ffffff" stroke="none" d="M 394 864 L 384 874 L 384 907 L 394 897"/></g><g transform="translate(-286,-110) scale(1,1)"><path fill="none" stroke="#000000" d="M 336 874 L 384 874 L 384 907 L 336 907 L 336 874" stroke-miterlimit="10"/></g><g transform="translate(-286,-110) scale(1,1)"><path fill="none" stroke="#000000" d="M 336 874 L 346 864 L 394 864 L 384 874 L 336 874" stroke-miterlimit="10"/></g><g transform="translate(-286,-110) scale(1,1)"><path fill="none" stroke="#000000" d="M 394 864 L 384 874 L 384 907 L 394 897 L 394 864" stroke-miterlimit="10"/></g><g transform="translate(-286,-110) scale(1,1)"><g><path fill="none" stroke="none"/><text fill="#000000" stroke="none" font-family="Arial" font-size="13px" font-style="normal" font-weight="bold" text-decoration="none" x="343.5" y="893.5">Agent</text></g></g><g transform="translate(-286,-110) scale(1,1)"><path fill="#C0C0C0" stroke="none" d="M 775 881 L 823 881 L 823 914 L 775 914" opacity="0.2"/></g><g transform="translate(-286,-110) scale(1,1)"><path fill="#C0C0C0" stroke="none" d="M 775 881 L 785 871 L 833 871 L 823 881" opacity="0.2"/></g><g transform="translate(-286,-110) scale(1,1)"><path fill="#C0C0C0" stroke="none" d="M 833 871 L 823 881 L 823 914 L 833 904" opacity="0.2"/></g><g transform="translate(-286,-110) scale(1,1)"><path fill="#ffffff" stroke="none" d="M 768 874 L 816 874 L 816 907 L 768 907"/></g><g transform="translate(-286,-110) scale(1,1)"><path fill="#ffffff" stroke="none" d="M 768 874 L 778 864 L 826 864 L 816 874"/></g><g transform="translate(-286,-110) scale(1,1)"><path fill="#ffffff" stroke="none" d="M 826 864 L 816 874 L 816 907 L 826 897"/></g><g transform="translate(-286,-110) scale(1,1)"><path fill="none" stroke="#000000" d="M 768 874 L 816 874 L 816 907 L 768 907 L 768 874" stroke-miterlimit="10"/></g><g transform="translate(-286,-110) scale(1,1)"><path fill="none" stroke="#000000" d="M 768 874 L 778 864 L 826 864 L 816 874 L 768 874" stroke-miterlimit="10"/></g><g transform="translate(-286,-110) scale(1,1)"><path fill="none" stroke="#000000" d="M 826 864 L 816 874 L 816 907 L 826 897 L 826 864" stroke-miterlimit="10"/></g><g transform="translate(-286,-110) scale(1,1)"><g><path fill="none" stroke="none"/><text fill="#000000" stroke="none" font-family="Arial" font-size="13px" font-style="normal" font-weight="bold" text-decoration="none" x="775.5" y="893.5">Agent</text></g></g><g transform="translate(-286,-110) scale(1,1)"><path fill="#C0C0C0" stroke="none" d="M 527 881 L 575 881 L 575 914 L 527 914" opacity="0.2"/></g><g transform="translate(-286,-110) scale(1,1)"><path fill="#C0C0C0" stroke="none" d="M 527 881 L 537 871 L 585 871 L 575 881" opacity="0.2"/></g><g transform="translate(-286,-110) scale(1,1)"><path fill="#C0C0C0" stroke="none" d="M 585 871 L 575 881 L 575 914 L 585 904" opacity="0.2"/></g><g transform="translate(-286,-110) scale(1,1)"><path fill="#ffffff" stroke="none" d="M 520 874 L 568 874 L 568 907 L 520 907"/></g><g transform="translate(-286,-110) scale(1,1)"><path fill="#ffffff" stroke="none" d="M 520 874 L 530 864 L 578 864 L 568 874"/></g><g transform="translate(-286,-110) scale(1,1)"><path fill="#ffffff" stroke="none" d="M 578 864 L 568 874 L 568 907 L 578 897"/></g><g transform="translate(-286,-110) scale(1,1)"><path fill="none" stroke="#000000" d="M 520 874 L 568 874 L 568 907 L 520 907 L 520 874" stroke-miterlimit="10"/></g><g transform="translate(-286,-110) scale(1,1)"><path fill="none" stroke="#000000" d="M 520 874 L 530 864 L 578 864 L 568 874 L 520 874" stroke-miterlimit="10"/></g><g transform="translate(-286,-110) scale(1,1)"><path fill="none" stroke="#000000" d="M 578 864 L 568 874 L 568 907 L 578 897 L 578 864" stroke-miterlimit="10"/></g><g transform="translate(-286,-110) scale(1,1)"><g><path fill="none" stroke="none"/><text fill="#000000" stroke="none" font-family="Arial" font-size="13px" font-style="normal" font-weight="bold" text-decoration="none" x="527.5" y="893.5">Agent</text></g></g><g transform="translate(-286,-110) scale(1,1)"><path fill="#C0C0C0" stroke="none" d="M 863 873 L 1276 873 L 1276 906 L 863 906" opacity="0.2"/></g><g transform="translate(-286,-110) scale(1,1)"><path fill="#C0C0C0" stroke="none" d="M 863 873 L 873 863 L 1286 863 L 1276 873" opacity="0.2"/></g><g transform="translate(-286,-110) scale(1,1)"><path fill="#C0C0C0" stroke="none" d="M 1286 863 L 1276 873 L 1276 906 L 1286 896" opacity="0.2"/></g><g transform="translate(-286,-110) scale(1,1)"><path fill="#ffffff" stroke="none" d="M 856 866 L 1269 866 L 1269 899 L 856 899"/></g><g transform="translate(-286,-110) scale(1,1)"><path fill="#ffffff" stroke="none" d="M 856 866 L 866 856 L 1279 856 L 1269 866"/></g><g transform="translate(-286,-110) scale(1,1)"><path fill="#ffffff" stroke="none" d="M 1279 856 L 1269 866 L 1269 899 L 1279 889"/></g><g transform="translate(-286,-110) scale(1,1)"><path fill="none" stroke="#000000" d="M 856 866 L 1269 866 L 1269 899 L 856 899 L 856 866" stroke-miterlimit="10"/></g><g transform="translate(-286,-110) scale(1,1)"><path fill="none" stroke="#000000" d="M 856 866 L 866 856 L 1279 856 L 1269 866 L 856 866" stroke-miterlimit="10"/></g><g transform="translate(-286,-110) scale(1,1)"><path fill="none" stroke="#000000" d="M 1279 856 L 1269 866 L 1269 899 L 1279 889 L 1279 856" stroke-miterlimit="10"/></g><g transform="translate(-286,-110) scale(1,1)"><g><path fill="none" stroke="none"/><text fill="#000000" stroke="none" font-family="Arial" font-size="13px" font-style="normal" font-weight="bold" text-decoration="none" x="1018.5" y="885.5">SDN Controlller</text></g></g><g transform="translate(-286,-110) scale(1,1)"><path fill="none" stroke="#000000" d="M 704 640 L 1033 855" stroke-miterlimit="10"/></g><g transform="translate(-286,-110) scale(1,1)"><path fill="none" stroke="#000000" d="M 652 640 L 600 736 L 396 866" stroke-miterlimit="10"/></g><g transform="translate(-286,-110) scale(1,1)"><path fill="none" stroke="#000000" d="M 655 640 L 559 863" stroke-miterlimit="10"/></g><g transform="translate(-286,-110) scale(1,1)"><path fill="none" stroke="#000000" d="M 657 640 L 624 736 L 770 863" stroke-miterlimit="10"/></g><g transform="translate(-286,-110) scale(1,1)"><path fill="none" stroke="#000000" d="M 396 886 L 519 886" stroke-miterlimit="10"/></g><g transform="translate(-286,-110) scale(1,1)"><path fill="none" stroke="#000000" d="M 580 886 L 767 886" stroke-miterlimit="10"/></g><g transform="translate(-286,-110) scale(1,1)"><path fill="#C0C0C0" stroke="none" d="M 1079 465 L 1181.3232421875 465 L 1181.3232421875 498 L 1079 498" opacity="0.2"/></g><g transform="translate(-286,-110) scale(1,1)"><path fill="#C0C0C0" stroke="none" d="M 1079 465 L 1089 455 L 1191.3232421875 455 L 1181.3232421875 465" opacity="0.2"/></g><g transform="translate(-286,-110) scale(1,1)"><path fill="#C0C0C0" stroke="none" d="M 1191.3232421875 455 L 1181.3232421875 465 L 1181.3232421875 498 L 1191.3232421875 488" opacity="0.2"/></g><g transform="translate(-286,-110) scale(1,1)"><path fill="#ffffff" stroke="none" d="M 1072 458 L 1174.3232421875 458 L 1174.3232421875 491 L 1072 491"/></g><g transform="translate(-286,-110) scale(1,1)"><path fill="#ffffff" stroke="none" d="M 1072 458 L 1082 448 L 1184.3232421875 448 L 1174.3232421875 458"/></g><g transform="translate(-286,-110) scale(1,1)"><path fill="#ffffff" stroke="none" d="M 1184.3232421875 448 L 1174.3232421875 458 L 1174.3232421875 491 L 1184.3232421875 481"/></g><g transform="translate(-286,-110) scale(1,1)"><path fill="none" stroke="#000000" d="M 1072 458 L 1174.3232421875 458 L 1174.3232421875 491 L 1072 491 L 1072 458" stroke-miterlimit="10"/></g><g transform="translate(-286,-110) scale(1,1)"><path fill="none" stroke="#000000" d="M 1072 458 L 1082 448 L 1184.3232421875 448 L 1174.3232421875 458 L 1072 458" stroke-miterlimit="10"/></g><g transform="translate(-286,-110) scale(1,1)"><path fill="none" stroke="#000000" d="M 1184.3232421875 448 L 1174.3232421875 458 L 1174.3232421875 491 L 1184.3232421875 481 L 1184.3232421875 448" stroke-miterlimit="10"/></g><g transform="translate(-286,-110) scale(1,1)"><g><path fill="none" stroke="none"/><text fill="#000000" stroke="none" font-family="Arial" font-size="13px" font-style="normal" font-weight="bold" text-decoration="none" x="1081.66162109375" y="477.5">Log Processor</text></g></g><g transform="translate(-286,-110) scale(1,1)"><path fill="none" stroke="#000000" d="M 985 455 L 1026 413" stroke-miterlimit="10"/></g><g transform="translate(-286,-110) scale(1,1)"><path fill="none" stroke="#000000" d="M 920 631 L 956 501" stroke-miterlimit="10"/></g><g transform="translate(-286,-110) scale(1,1)"><path fill="none" stroke="#000000" d="M 878 680 L 752 769 L 788 863" stroke-miterlimit="10"/></g><g transform="translate(-286,-110) scale(1,1)"><path fill="#C0C0C0" stroke="none" d="M 335 945 L 1284 945 L 1284 978 L 335 978" opacity="0.2"/></g><g transform="translate(-286,-110) scale(1,1)"><path fill="#C0C0C0" stroke="none" d="M 335 945 L 345 935 L 1294 935 L 1284 945" opacity="0.2"/></g><g transform="translate(-286,-110) scale(1,1)"><path fill="#C0C0C0" stroke="none" d="M 1294 935 L 1284 945 L 1284 978 L 1294 968" opacity="0.2"/></g><g transform="translate(-286,-110) scale(1,1)"><path fill="#ffffff" stroke="none" d="M 328 938 L 1277 938 L 1277 971 L 328 971"/></g><g transform="translate(-286,-110) scale(1,1)"><path fill="#ffffff" stroke="none" d="M 328 938 L 338 928 L 1287 928 L 1277 938"/></g><g transform="translate(-286,-110) scale(1,1)"><path fill="#ffffff" stroke="none" d="M 1287 928 L 1277 938 L 1277 971 L 1287 961"/></g><g transform="translate(-286,-110) scale(1,1)"><path fill="none" stroke="#000000" d="M 328 938 L 1277 938 L 1277 971 L 328 971 L 328 938" stroke-miterlimit="10"/></g><g transform="translate(-286,-110) scale(1,1)"><path fill="none" stroke="#000000" d="M 328 938 L 338 928 L 1287 928 L 1277 938 L 328 938" stroke-miterlimit="10"/></g><g transform="translate(-286,-110) scale(1,1)"><path fill="none" stroke="#000000" d="M 1287 928 L 1277 938 L 1277 971 L 1287 961 L 1287 928" stroke-miterlimit="10"/></g><g transform="translate(-286,-110) scale(1,1)"><g><path fill="none" stroke="none"/><text fill="#000000" stroke="none" font-family="Arial" font-size="13px" font-style="normal" font-weight="bold" text-decoration="none" x="790.5" y="957.5">ELK</text></g></g><g transform="translate(-286,-110) scale(1,1)"><path fill="#C0C0C0" stroke="none" d="M 343 1009 L 1284 1009 L 1284 1042 L 343 1042" opacity="0.2"/></g><g transform="translate(-286,-110) scale(1,1)"><path fill="#C0C0C0" stroke="none" d="M 343 1009 L 353 999 L 1294 999 L 1284 1009" opacity="0.2"/></g><g transform="translate(-286,-110) scale(1,1)"><path fill="#C0C0C0" stroke="none" d="M 1294 999 L 1284 1009 L 1284 1042 L 1294 1032" opacity="0.2"/></g><g transform="translate(-286,-110) scale(1,1)"><path fill="#ffffff" stroke="none" d="M 336 1002 L 1277 1002 L 1277 1035 L 336 1035"/></g><g transform="translate(-286,-110) scale(1,1)"><path fill="#ffffff" stroke="none" d="M 336 1002 L 346 992 L 1287 992 L 1277 1002"/></g><g transform="translate(-286,-110) scale(1,1)"><path fill="#ffffff" stroke="none" d="M 1287 992 L 1277 1002 L 1277 1035 L 1287 1025"/></g><g transform="translate(-286,-110) scale(1,1)"><path fill="none" stroke="#000000" d="M 336 1002 L 1277 1002 L 1277 1035 L 336 1035 L 336 1002" stroke-miterlimit="10"/></g><g transform="translate(-286,-110) scale(1,1)"><path fill="none" stroke="#000000" d="M 336 1002 L 346 992 L 1287 992 L 1277 1002 L 336 1002" stroke-miterlimit="10"/></g><g transform="translate(-286,-110) scale(1,1)"><path fill="none" stroke="#000000" d="M 1287 992 L 1277 1002 L 1277 1035 L 1287 1025 L 1287 992" stroke-miterlimit="10"/></g><g transform="translate(-286,-110) scale(1,1)"><g><path fill="none" stroke="none"/><text fill="#000000" stroke="none" font-family="Arial" font-size="13px" font-style="normal" font-weight="bold" text-decoration="none" x="787" y="1021.5">Consul</text></g></g><g transform="translate(-286,-110) scale(1,1)"><path fill="none" stroke="#000000" d="M 1742 696 L 1719 859" stroke-miterlimit="10"/></g><g transform="translate(-286,-110) scale(1,1)"><path fill="none" stroke="#000000" d="M 1563 862 L 1712 768 L 1736 696" stroke-miterlimit="10"/></g><g transform="translate(-286,-110) scale(1,1)"><path fill="#C0C0C0" stroke="none" d="M 1831 257 L 1905.28857421875 257 L 1905.28857421875 293 L 1831 293" opacity="0.2"/></g><g transform="translate(-286,-110) scale(1,1)"><path fill="#C0C0C0" stroke="none" d="M 1831 257 L 1841 247 L 1915.28857421875 247 L 1905.28857421875 257" opacity="0.2"/></g><g transform="translate(-286,-110) scale(1,1)"><path fill="#C0C0C0" stroke="none" d="M 1915.28857421875 247 L 1905.28857421875 257 L 1905.28857421875 293 L 1915.28857421875 283" opacity="0.2"/></g><g transform="translate(-286,-110) scale(1,1)"><path fill="#ffffff" stroke="none" d="M 1824 250 L 1898.28857421875 250 L 1898.28857421875 286 L 1824 286"/></g><g transform="translate(-286,-110) scale(1,1)"><path fill="#ffffff" stroke="none" d="M 1824 250 L 1834 240 L 1908.28857421875 240 L 1898.28857421875 250"/></g><g transform="translate(-286,-110) scale(1,1)"><path fill="#ffffff" stroke="none" d="M 1908.28857421875 240 L 1898.28857421875 250 L 1898.28857421875 286 L 1908.28857421875 276"/></g><g transform="translate(-286,-110) scale(1,1)"><path fill="none" stroke="#000000" d="M 1824 250 L 1898.28857421875 250 L 1898.28857421875 286 L 1824 286 L 1824 250" stroke-miterlimit="10"/></g><g transform="translate(-286,-110) scale(1,1)"><path fill="none" stroke="#000000" d="M 1824 250 L 1834 240 L 1908.28857421875 240 L 1898.28857421875 250 L 1824 250" stroke-miterlimit="10"/></g><g transform="translate(-286,-110) scale(1,1)"><path fill="none" stroke="#000000" d="M 1908.28857421875 240 L 1898.28857421875 250 L 1898.28857421875 286 L 1908.28857421875 276 L 1908.28857421875 240" stroke-miterlimit="10"/></g><g transform="translate(-286,-110) scale(1,1)"><g><path fill="none" stroke="none"/><text fill="#000000" stroke="none" font-family="Arial" font-size="13px" font-style="normal" font-weight="normal" text-decoration="none" x="1829.144287109375" y="267.5">«Gateway»</text></g></g><g transform="translate(-286,-110) scale(1,1)"><g><path fill="none" stroke="none"/><text fill="#000000" stroke="none" font-family="Arial" font-size="13px" font-style="normal" font-weight="bold" text-decoration="none" x="1846.144287109375" y="282.5">nginx</text></g></g><g transform="translate(-286,-110) scale(1,1)"><path fill="#C0C0C0" stroke="none" d="M 1495 417 L 1543 417 L 1543 450 L 1495 450" opacity="0.2"/></g><g transform="translate(-286,-110) scale(1,1)"><path fill="#C0C0C0" stroke="none" d="M 1495 417 L 1505 407 L 1553 407 L 1543 417" opacity="0.2"/></g><g transform="translate(-286,-110) scale(1,1)"><path fill="#C0C0C0" stroke="none" d="M 1553 407 L 1543 417 L 1543 450 L 1553 440" opacity="0.2"/></g><g transform="translate(-286,-110) scale(1,1)"><path fill="#ffffff" stroke="none" d="M 1488 410 L 1536 410 L 1536 443 L 1488 443"/></g><g transform="translate(-286,-110) scale(1,1)"><path fill="#ffffff" stroke="none" d="M 1488 410 L 1498 400 L 1546 400 L 1536 410"/></g><g transform="translate(-286,-110) scale(1,1)"><path fill="#ffffff" stroke="none" d="M 1546 400 L 1536 410 L 1536 443 L 1546 433"/></g><g transform="translate(-286,-110) scale(1,1)"><path fill="none" stroke="#000000" d="M 1488 410 L 1536 410 L 1536 443 L 1488 443 L 1488 410" stroke-miterlimit="10"/></g><g transform="translate(-286,-110) scale(1,1)"><path fill="none" stroke="#000000" d="M 1488 410 L 1498 400 L 1546 400 L 1536 410 L 1488 410" stroke-miterlimit="10"/></g><g transform="translate(-286,-110) scale(1,1)"><path fill="none" stroke="#000000" d="M 1546 400 L 1536 410 L 1536 443 L 1546 433 L 1546 400" stroke-miterlimit="10"/></g><g transform="translate(-286,-110) scale(1,1)"><g><path fill="none" stroke="none"/><text fill="#000000" stroke="none" font-family="Arial" font-size="13px" font-style="normal" font-weight="bold" text-decoration="none" x="1501.5" y="429.5">API</text></g></g><g transform="translate(-286,-110) scale(1,1)"><path fill="#C0C0C0" stroke="none" d="M 2191 665 L 2313 665 L 2313 698 L 2191 698" opacity="0.2"/></g><g transform="translate(-286,-110) scale(1,1)"><path fill="#C0C0C0" stroke="none" d="M 2191 665 L 2201 655 L 2323 655 L 2313 665" opacity="0.2"/></g><g transform="translate(-286,-110) scale(1,1)"><path fill="#C0C0C0" stroke="none" d="M 2323 655 L 2313 665 L 2313 698 L 2323 688" opacity="0.2"/></g><g transform="translate(-286,-110) scale(1,1)"><path fill="#ffffff" stroke="none" d="M 2184 658 L 2306 658 L 2306 691 L 2184 691"/></g><g transform="translate(-286,-110) scale(1,1)"><path fill="#ffffff" stroke="none" d="M 2184 658 L 2194 648 L 2316 648 L 2306 658"/></g><g transform="translate(-286,-110) scale(1,1)"><path fill="#ffffff" stroke="none" d="M 2316 648 L 2306 658 L 2306 691 L 2316 681"/></g><g transform="translate(-286,-110) scale(1,1)"><path fill="none" stroke="#000000" d="M 2184 658 L 2306 658 L 2306 691 L 2184 691 L 2184 658" stroke-miterlimit="10"/></g><g transform="translate(-286,-110) scale(1,1)"><path fill="none" stroke="#000000" d="M 2184 658 L 2194 648 L 2316 648 L 2306 658 L 2184 658" stroke-miterlimit="10"/></g><g transform="translate(-286,-110) scale(1,1)"><path fill="none" stroke="#000000" d="M 2316 648 L 2306 658 L 2306 691 L 2316 681 L 2316 648" stroke-miterlimit="10"/></g><g transform="translate(-286,-110) scale(1,1)"><g><path fill="none" stroke="none"/><text fill="#000000" stroke="none" font-family="Arial" font-size="13px" font-style="normal" font-weight="bold" text-decoration="none" x="2216.5" y="677.5">Scheduler</text></g></g><g transform="translate(-286,-110) scale(1,1)"><path fill="#C0C0C0" stroke="none" d="M 1487 577 L 1570 577 L 1570 613 L 1487 613" opacity="0.2"/></g><g transform="translate(-286,-110) scale(1,1)"><path fill="#C0C0C0" stroke="none" d="M 1487 577 L 1497 567 L 1580 567 L 1570 577" opacity="0.2"/></g><g transform="translate(-286,-110) scale(1,1)"><path fill="#C0C0C0" stroke="none" d="M 1580 567 L 1570 577 L 1570 613 L 1580 603" opacity="0.2"/></g><g transform="translate(-286,-110) scale(1,1)"><path fill="#ffffff" stroke="none" d="M 1480 570 L 1563 570 L 1563 606 L 1480 606"/></g><g transform="translate(-286,-110) scale(1,1)"><path fill="#ffffff" stroke="none" d="M 1480 570 L 1490 560 L 1573 560 L 1563 570"/></g><g transform="translate(-286,-110) scale(1,1)"><path fill="#ffffff" stroke="none" d="M 1573 560 L 1563 570 L 1563 606 L 1573 596"/></g><g transform="translate(-286,-110) scale(1,1)"><path fill="none" stroke="#000000" d="M 1480 570 L 1563 570 L 1563 606 L 1480 606 L 1480 570" stroke-miterlimit="10"/></g><g transform="translate(-286,-110) scale(1,1)"><path fill="none" stroke="#000000" d="M 1480 570 L 1490 560 L 1573 560 L 1563 570 L 1480 570" stroke-miterlimit="10"/></g><g transform="translate(-286,-110) scale(1,1)"><path fill="none" stroke="#000000" d="M 1573 560 L 1563 570 L 1563 606 L 1573 596 L 1573 560" stroke-miterlimit="10"/></g><g transform="translate(-286,-110) scale(1,1)"><g><path fill="none" stroke="none"/><text fill="#000000" stroke="none" font-family="Arial" font-size="13px" font-style="normal" font-weight="normal" text-decoration="none" x="1506" y="587.5">«DB»</text></g></g><g transform="translate(-286,-110) scale(1,1)"><g><path fill="none" stroke="none"/><text fill="#000000" stroke="none" font-family="Arial" font-size="13px" font-style="normal" font-weight="bold" text-decoration="none" x="1486.5" y="602.5">PostgreSQL</text></g></g><g transform="translate(-286,-110) scale(1,1)"><path fill="none" stroke="#000000" d="M 1823 283 L 1548 408" stroke-miterlimit="10"/></g><g transform="translate(-286,-110) scale(1,1)"><path fill="#C0C0C0" stroke="none" d="M 2175 377 L 2268.6552734375 377 L 2268.6552734375 410 L 2175 410" opacity="0.2"/></g><g transform="translate(-286,-110) scale(1,1)"><path fill="#C0C0C0" stroke="none" d="M 2175 377 L 2185 367 L 2278.6552734375 367 L 2268.6552734375 377" opacity="0.2"/></g><g transform="translate(-286,-110) scale(1,1)"><path fill="#C0C0C0" stroke="none" d="M 2278.6552734375 367 L 2268.6552734375 377 L 2268.6552734375 410 L 2278.6552734375 400" opacity="0.2"/></g><g transform="translate(-286,-110) scale(1,1)"><path fill="#ffffff" stroke="none" d="M 2168 370 L 2261.6552734375 370 L 2261.6552734375 403 L 2168 403"/></g><g transform="translate(-286,-110) scale(1,1)"><path fill="#ffffff" stroke="none" d="M 2168 370 L 2178 360 L 2271.6552734375 360 L 2261.6552734375 370"/></g><g transform="translate(-286,-110) scale(1,1)"><path fill="#ffffff" stroke="none" d="M 2271.6552734375 360 L 2261.6552734375 370 L 2261.6552734375 403 L 2271.6552734375 393"/></g><g transform="translate(-286,-110) scale(1,1)"><path fill="none" stroke="#000000" d="M 2168 370 L 2261.6552734375 370 L 2261.6552734375 403 L 2168 403 L 2168 370" stroke-miterlimit="10"/></g><g transform="translate(-286,-110) scale(1,1)"><path fill="none" stroke="#000000" d="M 2168 370 L 2178 360 L 2271.6552734375 360 L 2261.6552734375 370 L 2168 370" stroke-miterlimit="10"/></g><g transform="translate(-286,-110) scale(1,1)"><path fill="none" stroke="#000000" d="M 2271.6552734375 360 L 2261.6552734375 370 L 2261.6552734375 403 L 2271.6552734375 393 L 2271.6552734375 360" stroke-miterlimit="10"/></g><g transform="translate(-286,-110) scale(1,1)"><g><path fill="none" stroke="none"/><text fill="#000000" stroke="none" font-family="Arial" font-size="13px" font-style="normal" font-weight="bold" text-decoration="none" x="2179.32763671875" y="389.5">Notifications</text></g></g><g transform="translate(-286,-110) scale(1,1)"><path fill="#C0C0C0" stroke="none" d="M 1943 433 L 2095.84130859375 433 L 2095.84130859375 466 L 1943 466" opacity="0.2"/></g><g transform="translate(-286,-110) scale(1,1)"><path fill="#C0C0C0" stroke="none" d="M 1943 433 L 1953 423 L 2105.84130859375 423 L 2095.84130859375 433" opacity="0.2"/></g><g transform="translate(-286,-110) scale(1,1)"><path fill="#C0C0C0" stroke="none" d="M 2105.84130859375 423 L 2095.84130859375 433 L 2095.84130859375 466 L 2105.84130859375 456" opacity="0.2"/></g><g transform="translate(-286,-110) scale(1,1)"><path fill="#ffffff" stroke="none" d="M 1936 426 L 2088.84130859375 426 L 2088.84130859375 459 L 1936 459"/></g><g transform="translate(-286,-110) scale(1,1)"><path fill="#ffffff" stroke="none" d="M 1936 426 L 1946 416 L 2098.84130859375 416 L 2088.84130859375 426"/></g><g transform="translate(-286,-110) scale(1,1)"><path fill="#ffffff" stroke="none" d="M 2098.84130859375 416 L 2088.84130859375 426 L 2088.84130859375 459 L 2098.84130859375 449"/></g><g transform="translate(-286,-110) scale(1,1)"><path fill="none" stroke="#000000" d="M 1936 426 L 2088.84130859375 426 L 2088.84130859375 459 L 1936 459 L 1936 426" stroke-miterlimit="10"/></g><g transform="translate(-286,-110) scale(1,1)"><path fill="none" stroke="#000000" d="M 1936 426 L 1946 416 L 2098.84130859375 416 L 2088.84130859375 426 L 1936 426" stroke-miterlimit="10"/></g><g transform="translate(-286,-110) scale(1,1)"><path fill="none" stroke="#000000" d="M 2098.84130859375 416 L 2088.84130859375 426 L 2088.84130859375 459 L 2098.84130859375 449 L 2098.84130859375 416" stroke-miterlimit="10"/></g><g transform="translate(-286,-110) scale(1,1)"><g><path fill="none" stroke="none"/><text fill="#000000" stroke="none" font-family="Arial" font-size="13px" font-style="normal" font-weight="bold" text-decoration="none" x="1948.420654296875" y="445.5">Redis Shared Memory</text></g></g><g transform="translate(-286,-110) scale(1,1)"><path fill="none" stroke="#000000" d="M 1910 278 L 2167 364" stroke-miterlimit="10"/></g><g transform="translate(-286,-110) scale(1,1)"><path fill="none" stroke="#000000" d="M 2167 397 L 2100 415" stroke-miterlimit="10"/></g><g transform="translate(-286,-110) scale(1,1)"><path fill="#C0C0C0" stroke="none" d="M 1679 665 L 1815.6611328125 665 L 1815.6611328125 701 L 1679 701" opacity="0.2"/></g><g transform="translate(-286,-110) scale(1,1)"><path fill="#C0C0C0" stroke="none" d="M 1679 665 L 1689 655 L 1825.6611328125 655 L 1815.6611328125 665" opacity="0.2"/></g><g transform="translate(-286,-110) scale(1,1)"><path fill="#C0C0C0" stroke="none" d="M 1825.6611328125 655 L 1815.6611328125 665 L 1815.6611328125 701 L 1825.6611328125 691" opacity="0.2"/></g><g transform="translate(-286,-110) scale(1,1)"><path fill="#ffffff" stroke="none" d="M 1672 658 L 1808.6611328125 658 L 1808.6611328125 694 L 1672 694"/></g><g transform="translate(-286,-110) scale(1,1)"><path fill="#ffffff" stroke="none" d="M 1672 658 L 1682 648 L 1818.6611328125 648 L 1808.6611328125 658"/></g><g transform="translate(-286,-110) scale(1,1)"><path fill="#ffffff" stroke="none" d="M 1818.6611328125 648 L 1808.6611328125 658 L 1808.6611328125 694 L 1818.6611328125 684"/></g><g transform="translate(-286,-110) scale(1,1)"><path fill="none" stroke="#000000" d="M 1672 658 L 1808.6611328125 658 L 1808.6611328125 694 L 1672 694 L 1672 658" stroke-miterlimit="10"/></g><g transform="translate(-286,-110) scale(1,1)"><path fill="none" stroke="#000000" d="M 1672 658 L 1682 648 L 1818.6611328125 648 L 1808.6611328125 658 L 1672 658" stroke-miterlimit="10"/></g><g transform="translate(-286,-110) scale(1,1)"><path fill="none" stroke="#000000" d="M 1818.6611328125 648 L 1808.6611328125 658 L 1808.6611328125 694 L 1818.6611328125 684 L 1818.6611328125 648" stroke-miterlimit="10"/></g><g transform="translate(-286,-110) scale(1,1)"><g><path fill="none" stroke="none"/><text fill="#000000" stroke="none" font-family="Arial" font-size="13px" font-style="normal" font-weight="normal" text-decoration="none" x="1693.83056640625" y="675.5">«Message Bus»</text></g></g><g transform="translate(-286,-110) scale(1,1)"><g><path fill="none" stroke="none"/><text fill="#000000" stroke="none" font-family="Arial" font-size="13px" font-style="normal" font-weight="bold" text-decoration="none" x="1711.83056640625" y="690.5">RabbitMQ</text></g></g><g transform="translate(-286,-110) scale(1,1)"><path fill="#C0C0C0" stroke="none" d="M 2207 577 L 2329 577 L 2329 613 L 2207 613" opacity="0.2"/></g><g transform="translate(-286,-110) scale(1,1)"><path fill="#C0C0C0" stroke="none" d="M 2207 577 L 2217 567 L 2339 567 L 2329 577" opacity="0.2"/></g><g transform="translate(-286,-110) scale(1,1)"><path fill="#C0C0C0" stroke="none" d="M 2339 567 L 2329 577 L 2329 613 L 2339 603" opacity="0.2"/></g><g transform="translate(-286,-110) scale(1,1)"><path fill="#ffffff" stroke="none" d="M 2200 570 L 2322 570 L 2322 606 L 2200 606"/></g><g transform="translate(-286,-110) scale(1,1)"><path fill="#ffffff" stroke="none" d="M 2200 570 L 2210 560 L 2332 560 L 2322 570"/></g><g transform="translate(-286,-110) scale(1,1)"><path fill="#ffffff" stroke="none" d="M 2332 560 L 2322 570 L 2322 606 L 2332 596"/></g><g transform="translate(-286,-110) scale(1,1)"><path fill="none" stroke="#000000" d="M 2200 570 L 2322 570 L 2322 606 L 2200 606 L 2200 570" stroke-miterlimit="10"/></g><g transform="translate(-286,-110) scale(1,1)"><path fill="none" stroke="#000000" d="M 2200 570 L 2210 560 L 2332 560 L 2322 570 L 2200 570" stroke-miterlimit="10"/></g><g transform="translate(-286,-110) scale(1,1)"><path fill="none" stroke="#000000" d="M 2332 560 L 2322 570 L 2322 606 L 2332 596 L 2332 560" stroke-miterlimit="10"/></g><g transform="translate(-286,-110) scale(1,1)"><g><path fill="none" stroke="none"/><text fill="#000000" stroke="none" font-family="Arial" font-size="13px" font-style="normal" font-weight="bold" text-decoration="none" x="2232.5" y="589.5">Scheduler</text></g></g><g transform="translate(-286,-110) scale(1,1)"><path fill="none" stroke="#000000" d="M 1533 445 L 1568 496 L 1538 559" stroke-miterlimit="10"/></g><g transform="translate(-286,-110) scale(1,1)"><path fill="none" stroke="#000000" d="M 1538 445 L 1723 647" stroke-miterlimit="10"/></g><g transform="translate(-286,-110) scale(1,1)"><path fill="#C0C0C0" stroke="none" d="M 2055 617 L 2128.40625 617 L 2128.40625 653 L 2055 653" opacity="0.2"/></g><g transform="translate(-286,-110) scale(1,1)"><path fill="#C0C0C0" stroke="none" d="M 2055 617 L 2065 607 L 2138.40625 607 L 2128.40625 617" opacity="0.2"/></g><g transform="translate(-286,-110) scale(1,1)"><path fill="#C0C0C0" stroke="none" d="M 2138.40625 607 L 2128.40625 617 L 2128.40625 653 L 2138.40625 643" opacity="0.2"/></g><g transform="translate(-286,-110) scale(1,1)"><path fill="#ffffff" stroke="none" d="M 2048 610 L 2121.40625 610 L 2121.40625 646 L 2048 646"/></g><g transform="translate(-286,-110) scale(1,1)"><path fill="#ffffff" stroke="none" d="M 2048 610 L 2058 600 L 2131.40625 600 L 2121.40625 610"/></g><g transform="translate(-286,-110) scale(1,1)"><path fill="#ffffff" stroke="none" d="M 2131.40625 600 L 2121.40625 610 L 2121.40625 646 L 2131.40625 636"/></g><g transform="translate(-286,-110) scale(1,1)"><path fill="none" stroke="#000000" d="M 2048 610 L 2121.40625 610 L 2121.40625 646 L 2048 646 L 2048 610" stroke-miterlimit="10"/></g><g transform="translate(-286,-110) scale(1,1)"><path fill="none" stroke="#000000" d="M 2048 610 L 2058 600 L 2131.40625 600 L 2121.40625 610 L 2048 610" stroke-miterlimit="10"/></g><g transform="translate(-286,-110) scale(1,1)"><path fill="none" stroke="#000000" d="M 2131.40625 600 L 2121.40625 610 L 2121.40625 646 L 2131.40625 636 L 2131.40625 600" stroke-miterlimit="10"/></g><g transform="translate(-286,-110) scale(1,1)"><g><path fill="none" stroke="none"/><text fill="#000000" stroke="none" font-family="Arial" font-size="13px" font-style="normal" font-weight="normal" text-decoration="none" x="2058.703125" y="627.5">«Leader»</text></g></g><g transform="translate(-286,-110) scale(1,1)"><g><path fill="none" stroke="none"/><text fill="#000000" stroke="none" font-family="Arial" font-size="13px" font-style="normal" font-weight="bold" text-decoration="none" x="2056.203125" y="642.5">Scheduler</text></g></g><g transform="translate(-286,-110) scale(1,1)"><path fill="none" stroke="#000000" d="M 2199 598 L 2133 613" stroke-miterlimit="10"/></g><g transform="translate(-286,-110) scale(1,1)"><path fill="none" stroke="#000000" d="M 2261 608 L 2254 647" stroke-miterlimit="10"/></g><g transform="translate(-286,-110) scale(1,1)"><path fill="none" stroke="#000000" d="M 2183 650 L 2133 636" stroke-miterlimit="10"/></g><g transform="translate(-286,-110) scale(1,1)"><path fill="none" stroke="#000000" d="M 1821 649 L 1904 624 L 2047 623" stroke-miterlimit="10"/></g><g transform="translate(-286,-110) scale(1,1)"><path fill="none" stroke="#000000" d="M 1543 445 L 1592 488 L 1912 600 L 2047 617" stroke-miterlimit="10"/></g><g transform="translate(-286,-110) scale(1,1)"><path fill="#C0C0C0" stroke="none" d="M 1510 877 L 1558 877 L 1558 910 L 1510 910" opacity="0.2"/></g><g transform="translate(-286,-110) scale(1,1)"><path fill="#C0C0C0" stroke="none" d="M 1510 877 L 1520 867 L 1568 867 L 1558 877" opacity="0.2"/></g><g transform="translate(-286,-110) scale(1,1)"><path fill="#C0C0C0" stroke="none" d="M 1568 867 L 1558 877 L 1558 910 L 1568 900" opacity="0.2"/></g><g transform="translate(-286,-110) scale(1,1)"><path fill="#ffffff" stroke="none" d="M 1503 870 L 1551 870 L 1551 903 L 1503 903"/></g><g transform="translate(-286,-110) scale(1,1)"><path fill="#ffffff" stroke="none" d="M 1503 870 L 1513 860 L 1561 860 L 1551 870"/></g><g transform="translate(-286,-110) scale(1,1)"><path fill="#ffffff" stroke="none" d="M 1561 860 L 1551 870 L 1551 903 L 1561 893"/></g><g transform="translate(-286,-110) scale(1,1)"><path fill="none" stroke="#000000" d="M 1503 870 L 1551 870 L 1551 903 L 1503 903 L 1503 870" stroke-miterlimit="10"/></g><g transform="translate(-286,-110) scale(1,1)"><path fill="none" stroke="#000000" d="M 1503 870 L 1513 860 L 1561 860 L 1551 870 L 1503 870" stroke-miterlimit="10"/></g><g transform="translate(-286,-110) scale(1,1)"><path fill="none" stroke="#000000" d="M 1561 860 L 1551 870 L 1551 903 L 1561 893 L 1561 860" stroke-miterlimit="10"/></g><g transform="translate(-286,-110) scale(1,1)"><g><path fill="none" stroke="none"/><text fill="#000000" stroke="none" font-family="Arial" font-size="13px" font-style="normal" font-weight="bold" text-decoration="none" x="1510.5" y="889.5">Agent</text></g></g><g transform="translate(-286,-110) scale(1,1)"><path fill="#C0C0C0" stroke="none" d="M 1910 877 L 1958 877 L 1958 910 L 1910 910" opacity="0.2"/></g><g transform="translate(-286,-110) scale(1,1)"><path fill="#C0C0C0" stroke="none" d="M 1910 877 L 1920 867 L 1968 867 L 1958 877" opacity="0.2"/></g><g transform="translate(-286,-110) scale(1,1)"><path fill="#C0C0C0" stroke="none" d="M 1968 867 L 1958 877 L 1958 910 L 1968 900" opacity="0.2"/></g><g transform="translate(-286,-110) scale(1,1)"><path fill="#ffffff" stroke="none" d="M 1903 870 L 1951 870 L 1951 903 L 1903 903"/></g><g transform="translate(-286,-110) scale(1,1)"><path fill="#ffffff" stroke="none" d="M 1903 870 L 1913 860 L 1961 860 L 1951 870"/></g><g transform="translate(-286,-110) scale(1,1)"><path fill="#ffffff" stroke="none" d="M 1961 860 L 1951 870 L 1951 903 L 1961 893"/></g><g transform="translate(-286,-110) scale(1,1)"><path fill="none" stroke="#000000" d="M 1903 870 L 1951 870 L 1951 903 L 1903 903 L 1903 870" stroke-miterlimit="10"/></g><g transform="translate(-286,-110) scale(1,1)"><path fill="none" stroke="#000000" d="M 1903 870 L 1913 860 L 1961 860 L 1951 870 L 1903 870" stroke-miterlimit="10"/></g><g transform="translate(-286,-110) scale(1,1)"><path fill="none" stroke="#000000" d="M 1961 860 L 1951 870 L 1951 903 L 1961 893 L 1961 860" stroke-miterlimit="10"/></g><g transform="translate(-286,-110) scale(1,1)"><g><path fill="none" stroke="none"/><text fill="#000000" stroke="none" font-family="Arial" font-size="13px" font-style="normal" font-weight="bold" text-decoration="none" x="1910.5" y="889.5">Agent</text></g></g><g transform="translate(-286,-110) scale(1,1)"><path fill="#C0C0C0" stroke="none" d="M 1694 877 L 1742 877 L 1742 910 L 1694 910" opacity="0.2"/></g><g transform="translate(-286,-110) scale(1,1)"><path fill="#C0C0C0" stroke="none" d="M 1694 877 L 1704 867 L 1752 867 L 1742 877" opacity="0.2"/></g><g transform="translate(-286,-110) scale(1,1)"><path fill="#C0C0C0" stroke="none" d="M 1752 867 L 1742 877 L 1742 910 L 1752 900" opacity="0.2"/></g><g transform="translate(-286,-110) scale(1,1)"><path fill="#ffffff" stroke="none" d="M 1687 870 L 1735 870 L 1735 903 L 1687 903"/></g><g transform="translate(-286,-110) scale(1,1)"><path fill="#ffffff" stroke="none" d="M 1687 870 L 1697 860 L 1745 860 L 1735 870"/></g><g transform="translate(-286,-110) scale(1,1)"><path fill="#ffffff" stroke="none" d="M 1745 860 L 1735 870 L 1735 903 L 1745 893"/></g><g transform="translate(-286,-110) scale(1,1)"><path fill="none" stroke="#000000" d="M 1687 870 L 1735 870 L 1735 903 L 1687 903 L 1687 870" stroke-miterlimit="10"/></g><g transform="translate(-286,-110) scale(1,1)"><path fill="none" stroke="#000000" d="M 1687 870 L 1697 860 L 1745 860 L 1735 870 L 1687 870" stroke-miterlimit="10"/></g><g transform="translate(-286,-110) scale(1,1)"><path fill="none" stroke="#000000" d="M 1745 860 L 1735 870 L 1735 903 L 1745 893 L 1745 860" stroke-miterlimit="10"/></g><g transform="translate(-286,-110) scale(1,1)"><g><path fill="none" stroke="none"/><text fill="#000000" stroke="none" font-family="Arial" font-size="13px" font-style="normal" font-weight="bold" text-decoration="none" x="1694.5" y="889.5">Agent</text></g></g><g transform="translate(-286,-110) scale(1,1)"><path fill="#C0C0C0" stroke="none" d="M 1999 873 L 2435 873 L 2435 906 L 1999 906" opacity="0.2"/></g><g transform="translate(-286,-110) scale(1,1)"><path fill="#C0C0C0" stroke="none" d="M 1999 873 L 2009 863 L 2445 863 L 2435 873" opacity="0.2"/></g><g transform="translate(-286,-110) scale(1,1)"><path fill="#C0C0C0" stroke="none" d="M 2445 863 L 2435 873 L 2435 906 L 2445 896" opacity="0.2"/></g><g transform="translate(-286,-110) scale(1,1)"><path fill="#ffffff" stroke="none" d="M 1992 866 L 2428 866 L 2428 899 L 1992 899"/></g><g transform="translate(-286,-110) scale(1,1)"><path fill="#ffffff" stroke="none" d="M 1992 866 L 2002 856 L 2438 856 L 2428 866"/></g><g transform="translate(-286,-110) scale(1,1)"><path fill="#ffffff" stroke="none" d="M 2438 856 L 2428 866 L 2428 899 L 2438 889"/></g><g transform="translate(-286,-110) scale(1,1)"><path fill="none" stroke="#000000" d="M 1992 866 L 2428 866 L 2428 899 L 1992 899 L 1992 866" stroke-miterlimit="10"/></g><g transform="translate(-286,-110) scale(1,1)"><path fill="none" stroke="#000000" d="M 1992 866 L 2002 856 L 2438 856 L 2428 866 L 1992 866" stroke-miterlimit="10"/></g><g transform="translate(-286,-110) scale(1,1)"><path fill="none" stroke="#000000" d="M 2438 856 L 2428 866 L 2428 899 L 2438 889 L 2438 856" stroke-miterlimit="10"/></g><g transform="translate(-286,-110) scale(1,1)"><g><path fill="none" stroke="none"/><text fill="#000000" stroke="none" font-family="Arial" font-size="13px" font-style="normal" font-weight="bold" text-decoration="none" x="2166" y="885.5">SDN Controlller</text></g></g><g transform="translate(-286,-110) scale(1,1)"><path fill="none" stroke="#000000" d="M 2102 648 L 2204 855" stroke-miterlimit="10"/></g><g transform="translate(-286,-110) scale(1,1)"><path fill="none" stroke="#000000" d="M 2049 648 L 1904 736 L 1563 870" stroke-miterlimit="10"/></g><g transform="translate(-286,-110) scale(1,1)"><path fill="none" stroke="#000000" d="M 2054 648 L 1747 861" stroke-miterlimit="10"/></g><g transform="translate(-286,-110) scale(1,1)"><path fill="none" stroke="#000000" d="M 2058 648 L 1936 744 L 1933 859" stroke-miterlimit="10"/></g><g transform="translate(-286,-110) scale(1,1)"><path fill="none" stroke="#000000" d="M 1563 882 L 1686 882" stroke-miterlimit="10"/></g><g transform="translate(-286,-110) scale(1,1)"><path fill="none" stroke="#000000" d="M 1747 882 L 1902 882" stroke-miterlimit="10"/></g><g transform="translate(-286,-110) scale(1,1)"><path fill="#C0C0C0" stroke="none" d="M 1615 441 L 1717.3232421875 441 L 1717.3232421875 474 L 1615 474" opacity="0.2"/></g><g transform="translate(-286,-110) scale(1,1)"><path fill="#C0C0C0" stroke="none" d="M 1615 441 L 1625 431 L 1727.3232421875 431 L 1717.3232421875 441" opacity="0.2"/></g><g transform="translate(-286,-110) scale(1,1)"><path fill="#C0C0C0" stroke="none" d="M 1727.3232421875 431 L 1717.3232421875 441 L 1717.3232421875 474 L 1727.3232421875 464" opacity="0.2"/></g><g transform="translate(-286,-110) scale(1,1)"><path fill="#ffffff" stroke="none" d="M 1608 434 L 1710.3232421875 434 L 1710.3232421875 467 L 1608 467"/></g><g transform="translate(-286,-110) scale(1,1)"><path fill="#ffffff" stroke="none" d="M 1608 434 L 1618 424 L 1720.3232421875 424 L 1710.3232421875 434"/></g><g transform="translate(-286,-110) scale(1,1)"><path fill="#ffffff" stroke="none" d="M 1720.3232421875 424 L 1710.3232421875 434 L 1710.3232421875 467 L 1720.3232421875 457"/></g><g transform="translate(-286,-110) scale(1,1)"><path fill="none" stroke="#000000" d="M 1608 434 L 1710.3232421875 434 L 1710.3232421875 467 L 1608 467 L 1608 434" stroke-miterlimit="10"/></g><g transform="translate(-286,-110) scale(1,1)"><path fill="none" stroke="#000000" d="M 1608 434 L 1618 424 L 1720.3232421875 424 L 1710.3232421875 434 L 1608 434" stroke-miterlimit="10"/></g><g transform="translate(-286,-110) scale(1,1)"><path fill="none" stroke="#000000" d="M 1720.3232421875 424 L 1710.3232421875 434 L 1710.3232421875 467 L 1720.3232421875 457 L 1720.3232421875 424" stroke-miterlimit="10"/></g><g transform="translate(-286,-110) scale(1,1)"><g><path fill="none" stroke="none"/><text fill="#000000" stroke="none" font-family="Arial" font-size="13px" font-style="normal" font-weight="bold" text-decoration="none" x="1617.66162109375" y="453.5">Log Processor</text></g></g><g transform="translate(-286,-110) scale(1,1)"><path fill="none" stroke="#000000" d="M 1722 445 L 1935 440" stroke-miterlimit="10"/></g><g transform="translate(-286,-110) scale(1,1)"><path fill="#C0C0C0" stroke="none" d="M 1183 137 L 1235.8779296875 137 L 1235.8779296875 170 L 1183 170" opacity="0.2"/></g><g transform="translate(-286,-110) scale(1,1)"><path fill="#C0C0C0" stroke="none" d="M 1183 137 L 1193 127 L 1245.8779296875 127 L 1235.8779296875 137" opacity="0.2"/></g><g transform="translate(-286,-110) scale(1,1)"><path fill="#C0C0C0" stroke="none" d="M 1245.8779296875 127 L 1235.8779296875 137 L 1235.8779296875 170 L 1245.8779296875 160" opacity="0.2"/></g><g transform="translate(-286,-110) scale(1,1)"><path fill="#ffffff" stroke="none" d="M 1176 130 L 1228.8779296875 130 L 1228.8779296875 163 L 1176 163"/></g><g transform="translate(-286,-110) scale(1,1)"><path fill="#ffffff" stroke="none" d="M 1176 130 L 1186 120 L 1238.8779296875 120 L 1228.8779296875 130"/></g><g transform="translate(-286,-110) scale(1,1)"><path fill="#ffffff" stroke="none" d="M 1238.8779296875 120 L 1228.8779296875 130 L 1228.8779296875 163 L 1238.8779296875 153"/></g><g transform="translate(-286,-110) scale(1,1)"><path fill="none" stroke="#000000" d="M 1176 130 L 1228.8779296875 130 L 1228.8779296875 163 L 1176 163 L 1176 130" stroke-miterlimit="10"/></g><g transform="translate(-286,-110) scale(1,1)"><path fill="none" stroke="#000000" d="M 1176 130 L 1186 120 L 1238.8779296875 120 L 1228.8779296875 130 L 1176 130" stroke-miterlimit="10"/></g><g transform="translate(-286,-110) scale(1,1)"><path fill="none" stroke="#000000" d="M 1238.8779296875 120 L 1228.8779296875 130 L 1228.8779296875 163 L 1238.8779296875 153 L 1238.8779296875 120" stroke-miterlimit="10"/></g><g transform="translate(-286,-110) scale(1,1)"><g><path fill="none" stroke="none"/><text fill="#000000" stroke="none" font-family="Arial" font-size="13px" font-style="normal" font-weight="bold" text-decoration="none" x="1183.93896484375" y="149.5">Github</text></g></g><g transform="translate(-286,-110) scale(1,1)"><path fill="none" stroke="#000000" d="M 1241 148 L 1823 255" stroke-miterlimit="10"/></g><g transform="translate(-286,-110) scale(1,1)"><path fill="none" stroke="#000000" d="M 1745 696 L 1744 760 L 1902 863" stroke-miterlimit="10"/></g><g transform="translate(-286,-110) scale(1,1)"><path fill="#C0C0C0" stroke="none" d="M 1462 941 L 2451 941 L 2451 974 L 1462 974" opacity="0.2"/></g><g transform="translate(-286,-110) scale(1,1)"><path fill="#C0C0C0" stroke="none" d="M 1462 941 L 1472 931 L 2461 931 L 2451 941" opacity="0.2"/></g><g transform="translate(-286,-110) scale(1,1)"><path fill="#C0C0C0" stroke="none" d="M 2461 931 L 2451 941 L 2451 974 L 2461 964" opacity="0.2"/></g><g transform="translate(-286,-110) scale(1,1)"><path fill="#ffffff" stroke="none" d="M 1455 934 L 2444 934 L 2444 967 L 1455 967"/></g><g transform="translate(-286,-110) scale(1,1)"><path fill="#ffffff" stroke="none" d="M 1455 934 L 1465 924 L 2454 924 L 2444 934"/></g><g transform="translate(-286,-110) scale(1,1)"><path fill="#ffffff" stroke="none" d="M 2454 924 L 2444 934 L 2444 967 L 2454 957"/></g><g transform="translate(-286,-110) scale(1,1)"><path fill="none" stroke="#000000" d="M 1455 934 L 2444 934 L 2444 967 L 1455 967 L 1455 934" stroke-miterlimit="10"/></g><g transform="translate(-286,-110) scale(1,1)"><path fill="none" stroke="#000000" d="M 1455 934 L 1465 924 L 2454 924 L 2444 934 L 1455 934" stroke-miterlimit="10"/></g><g transform="translate(-286,-110) scale(1,1)"><path fill="none" stroke="#000000" d="M 2454 924 L 2444 934 L 2444 967 L 2454 957 L 2454 924" stroke-miterlimit="10"/></g><g transform="translate(-286,-110) scale(1,1)"><g><path fill="none" stroke="none"/><text fill="#000000" stroke="none" font-family="Arial" font-size="13px" font-style="normal" font-weight="bold" text-decoration="none" x="1937.5" y="953.5">ELK</text></g></g><g transform="translate(-286,-110) scale(1,1)"><path fill="#C0C0C0" stroke="none" d="M 1462 1005 L 2451 1005 L 2451 1038 L 1462 1038" opacity="0.2"/></g><g transform="translate(-286,-110) scale(1,1)"><path fill="#C0C0C0" stroke="none" d="M 1462 1005 L 1472 995 L 2461 995 L 2451 1005" opacity="0.2"/></g><g transform="translate(-286,-110) scale(1,1)"><path fill="#C0C0C0" stroke="none" d="M 2461 995 L 2451 1005 L 2451 1038 L 2461 1028" opacity="0.2"/></g><g transform="translate(-286,-110) scale(1,1)"><path fill="#ffffff" stroke="none" d="M 1455 998 L 2444 998 L 2444 1031 L 1455 1031"/></g><g transform="translate(-286,-110) scale(1,1)"><path fill="#ffffff" stroke="none" d="M 1455 998 L 1465 988 L 2454 988 L 2444 998"/></g><g transform="translate(-286,-110) scale(1,1)"><path fill="#ffffff" stroke="none" d="M 2454 988 L 2444 998 L 2444 1031 L 2454 1021"/></g><g transform="translate(-286,-110) scale(1,1)"><path fill="none" stroke="#000000" d="M 1455 998 L 2444 998 L 2444 1031 L 1455 1031 L 1455 998" stroke-miterlimit="10"/></g><g transform="translate(-286,-110) scale(1,1)"><path fill="none" stroke="#000000" d="M 1455 998 L 1465 988 L 2454 988 L 2444 998 L 1455 998" stroke-miterlimit="10"/></g><g transform="translate(-286,-110) scale(1,1)"><path fill="none" stroke="#000000" d="M 2454 988 L 2444 998 L 2444 1031 L 2454 1021 L 2454 988" stroke-miterlimit="10"/></g><g transform="translate(-286,-110) scale(1,1)"><g><path fill="none" stroke="none"/><text fill="#000000" stroke="none" font-family="Arial" font-size="13px" font-style="normal" font-weight="bold" text-decoration="none" x="1930" y="1017.5">Consul</text></g></g><g transform="translate(-286,-110) scale(1,1)"><path fill="none" stroke="#000000" d="M 1479 582 L 1087 576" stroke-miterlimit="10"/></g><g transform="translate(-286,-110) scale(1,1)"><path fill="none" stroke="#000000" d="M 989 656 L 1671 670" stroke-miterlimit="10"/></g><g transform="translate(-286,-110) scale(1,1)"><path fill="none" stroke="#000000" d="M 830 250 L 1175 151" stroke-miterlimit="10"/></g><g transform="translate(-286,-110) scale(1,1)"><path fill="none" stroke="#000000" d="M 1557 559 L 1616 512 L 1647 469" stroke-miterlimit="10"/></g><g transform="translate(-286,-110) scale(1,1)"><path fill="#C0C0C0" stroke="none" d="M 351 417 L 427.7451171875 417 L 427.7451171875 450 L 351 450" opacity="0.2"/></g><g transform="translate(-286,-110) scale(1,1)"><path fill="#C0C0C0" stroke="none" d="M 351 417 L 361 407 L 437.7451171875 407 L 427.7451171875 417" opacity="0.2"/></g><g transform="translate(-286,-110) scale(1,1)"><path fill="#C0C0C0" stroke="none" d="M 437.7451171875 407 L 427.7451171875 417 L 427.7451171875 450 L 437.7451171875 440" opacity="0.2"/></g><g transform="translate(-286,-110) scale(1,1)"><path fill="#ffffff" stroke="none" d="M 344 410 L 420.7451171875 410 L 420.7451171875 443 L 344 443"/></g><g transform="translate(-286,-110) scale(1,1)"><path fill="#ffffff" stroke="none" d="M 344 410 L 354 400 L 430.7451171875 400 L 420.7451171875 410"/></g><g transform="translate(-286,-110) scale(1,1)"><path fill="#ffffff" stroke="none" d="M 430.7451171875 400 L 420.7451171875 410 L 420.7451171875 443 L 430.7451171875 433"/></g><g transform="translate(-286,-110) scale(1,1)"><path fill="none" stroke="#000000" d="M 344 410 L 420.7451171875 410 L 420.7451171875 443 L 344 443 L 344 410" stroke-miterlimit="10"/></g><g transform="translate(-286,-110) scale(1,1)"><path fill="none" stroke="#000000" d="M 344 410 L 354 400 L 430.7451171875 400 L 420.7451171875 410 L 344 410" stroke-miterlimit="10"/></g><g transform="translate(-286,-110) scale(1,1)"><path fill="none" stroke="#000000" d="M 430.7451171875 400 L 420.7451171875 410 L 420.7451171875 443 L 430.7451171875 433 L 430.7451171875 400" stroke-miterlimit="10"/></g><g transform="translate(-286,-110) scale(1,1)"><g><path fill="none" stroke="none"/><text fill="#000000" stroke="none" font-family="Arial" font-size="13px" font-style="normal" font-weight="bold" text-decoration="none" x="351.37255859375" y="429.5">PowerDNS</text></g></g><g transform="translate(-286,-110) scale(1,1)"><path fill="#C0C0C0" stroke="none" d="M 1967 537 L 2043.7451171875 537 L 2043.7451171875 570 L 1967 570" opacity="0.2"/></g><g transform="translate(-286,-110) scale(1,1)"><path fill="#C0C0C0" stroke="none" d="M 1967 537 L 1977 527 L 2053.7451171875 527 L 2043.7451171875 537" opacity="0.2"/></g><g transform="translate(-286,-110) scale(1,1)"><path fill="#C0C0C0" stroke="none" d="M 2053.7451171875 527 L 2043.7451171875 537 L 2043.7451171875 570 L 2053.7451171875 560" opacity="0.2"/></g><g transform="translate(-286,-110) scale(1,1)"><path fill="#ffffff" stroke="none" d="M 1960 530 L 2036.7451171875 530 L 2036.7451171875 563 L 1960 563"/></g><g transform="translate(-286,-110) scale(1,1)"><path fill="#ffffff" stroke="none" d="M 1960 530 L 1970 520 L 2046.7451171875 520 L 2036.7451171875 530"/></g><g transform="translate(-286,-110) scale(1,1)"><path fill="#ffffff" stroke="none" d="M 2046.7451171875 520 L 2036.7451171875 530 L 2036.7451171875 563 L 2046.7451171875 553"/></g><g transform="translate(-286,-110) scale(1,1)"><path fill="none" stroke="#000000" d="M 1960 530 L 2036.7451171875 530 L 2036.7451171875 563 L 1960 563 L 1960 530" stroke-miterlimit="10"/></g><g transform="translate(-286,-110) scale(1,1)"><path fill="none" stroke="#000000" d="M 1960 530 L 1970 520 L 2046.7451171875 520 L 2036.7451171875 530 L 1960 530" stroke-miterlimit="10"/></g><g transform="translate(-286,-110) scale(1,1)"><path fill="none" stroke="#000000" d="M 2046.7451171875 520 L 2036.7451171875 530 L 2036.7451171875 563 L 2046.7451171875 553 L 2046.7451171875 520" stroke-miterlimit="10"/></g><g transform="translate(-286,-110) scale(1,1)"><g><path fill="none" stroke="none"/><text fill="#000000" stroke="none" font-family="Arial" font-size="13px" font-style="normal" font-weight="bold" text-decoration="none" x="1967.37255859375" y="549.5">PowerDNS</text></g></g><g transform="translate(-286,-110) scale(1,1)"><path fill="none" stroke="#000000" d="M 2028 565 L 2064 599" stroke-miterlimit="10"/></g><g transform="translate(-286,-110) scale(1,1)"><path fill="none" stroke="#000000" d="M 420 445 L 631 591" stroke-miterlimit="10"/></g><g transform="translate(-286,-110) scale(1,1)"><path fill="none" stroke="#000000" d="M 426 445 L 552 520 L 991 570" stroke-miterlimit="10"/></g><g transform="translate(-286,-110) scale(1,1)"><path fill="none" stroke="#000000" d="M 1575 579 L 1959 546" stroke-miterlimit="10"/></g><g transform="translate(-286,-110) scale(1,1)"><path fill="none" stroke="#000000" d="M 1575 586 L 2047 620" stroke-miterlimit="10"/></g><g transform="translate(-286,-110) scale(1,1)"><path fill="none" stroke="#000000" d="M 991 573 L 832 568 L 709 603" stroke-miterlimit="10"/></g><g transform="translate(-286,-110) scale(1,1)"><path fill="#C0C0C0" stroke="none" d="M 1785.4 343 L 1812.8400000000001 343 L 1824.6000000000001 354.76 L 1824.6000000000001 392 L 1785.4 392" opacity="0.2"/></g><g transform="translate(-286,-110) scale(1,1)"><path fill="#ffffff" stroke="none" d="M 1778.4 336 L 1805.84 336 L 1817.6 347.75999999999993 L 1817.6 385 L 1778.4 385"/></g><g transform="translate(-286,-110) scale(1,1)"><path fill="none" stroke="#000000" d="M 1778.4 336 L 1805.84 336 L 1817.6 347.75999999999993 L 1817.6 385 L 1778.4 385 L 1778.4 336" stroke-miterlimit="10"/></g><g transform="translate(-286,-110) scale(1,1)"><path fill="none" stroke="#000000" d="M 1805.84 336 L 1805.84 347.75999999999993 L 1817.6 347.75999999999993 L 1805.84 336" stroke-miterlimit="10"/></g><g transform="translate(-286,-110) scale(1,1)"><g><path fill="none" stroke="none"/><text fill="#000000" stroke="none" font-family="Arial" font-size="13px" font-style="normal" font-weight="bold" text-decoration="none" x="1785" y="404.5">Web</text></g></g><g transform="translate(-286,-110) scale(1,1)"><path fill="#C0C0C0" stroke="none" d="M 1898.23642578125 343 L 1925.6764257812501 343 L 1937.4364257812501 354.76 L 1937.4364257812501 392 L 1898.23642578125 392" opacity="0.2"/></g><g transform="translate(-286,-110) scale(1,1)"><path fill="#ffffff" stroke="none" d="M 1891.23642578125 336 L 1918.67642578125 336 L 1930.43642578125 347.75999999999993 L 1930.43642578125 385 L 1891.23642578125 385"/></g><g transform="translate(-286,-110) scale(1,1)"><path fill="none" stroke="#000000" d="M 1891.23642578125 336 L 1918.67642578125 336 L 1930.43642578125 347.75999999999993 L 1930.43642578125 385 L 1891.23642578125 385 L 1891.23642578125 336" stroke-miterlimit="10"/></g><g transform="translate(-286,-110) scale(1,1)"><path fill="none" stroke="#000000" d="M 1918.67642578125 336 L 1918.67642578125 347.75999999999993 L 1930.43642578125 347.75999999999993 L 1918.67642578125 336" stroke-miterlimit="10"/></g><g transform="translate(-286,-110) scale(1,1)"><g><path fill="none" stroke="none"/><text fill="#000000" stroke="none" font-family="Arial" font-size="13px" font-style="normal" font-weight="bold" text-decoration="none" x="1888.33642578125" y="404.5">Support</text></g></g><g transform="translate(-286,-110) scale(1,1)"><path fill="none" stroke="#000000" d="M 1851 288 L 1821 335" stroke-miterlimit="10" stroke-dasharray="3"/></g><g transform="translate(-286,-110) scale(1,1)"><path fill="none" stroke="#000000" d="M 1822.9195833617623 324.16878586135215 L 1821 335 L 1830.0161753780765 328.69852544623353" stroke-miterlimit="10"/></g><g transform="translate(-286,-110) scale(1,1)"><path fill="none" stroke="#000000" d="M 1876 288 L 1895 335" stroke-miterlimit="10" stroke-dasharray="3"/></g><g transform="translate(-286,-110) scale(1,1)"><path fill="none" stroke="#000000" d="M 1887.2884531859 327.15576353403713 L 1895 335 L 1895.0938257526254 324.0004001559991" stroke-miterlimit="10"/></g><g transform="translate(-286,-110) scale(1,1)"><path fill="#C0C0C0" stroke="none" d="M 697.4 335 L 724.84 335 L 736.6 346.76 L 736.6 384 L 697.4 384" opacity="0.2"/></g><g transform="translate(-286,-110) scale(1,1)"><path fill="#ffffff" stroke="none" d="M 690.4 328 L 717.84 328 L 729.6 339.76 L 729.6 377 L 690.4 377"/></g><g transform="translate(-286,-110) scale(1,1)"><path fill="none" stroke="#000000" d="M 690.4 328 L 717.84 328 L 729.6 339.76 L 729.6 377 L 690.4 377 L 690.4 328" stroke-miterlimit="10"/></g><g transform="translate(-286,-110) scale(1,1)"><path fill="none" stroke="#000000" d="M 717.84 328 L 717.84 339.76 L 729.6 339.76 L 717.84 328" stroke-miterlimit="10"/></g><g transform="translate(-286,-110) scale(1,1)"><g><path fill="none" stroke="none"/><text fill="#000000" stroke="none" font-family="Arial" font-size="13px" font-style="normal" font-weight="bold" text-decoration="none" x="697" y="396.5">Web</text></g></g><g transform="translate(-286,-110) scale(1,1)"><path fill="#C0C0C0" stroke="none" d="M 818.23642578125 335 L 845.67642578125 335 L 857.43642578125 346.76 L 857.43642578125 384 L 818.23642578125 384" opacity="0.2"/></g><g transform="translate(-286,-110) scale(1,1)"><path fill="#ffffff" stroke="none" d="M 811.23642578125 328 L 838.67642578125 328 L 850.43642578125 339.76 L 850.43642578125 377 L 811.23642578125 377"/></g><g transform="translate(-286,-110) scale(1,1)"><path fill="none" stroke="#000000" d="M 811.23642578125 328 L 838.67642578125 328 L 850.43642578125 339.76 L 850.43642578125 377 L 811.23642578125 377 L 811.23642578125 328" stroke-miterlimit="10"/></g><g transform="translate(-286,-110) scale(1,1)"><path fill="none" stroke="#000000" d="M 838.67642578125 328 L 838.67642578125 339.76 L 850.43642578125 339.76 L 838.67642578125 328" stroke-miterlimit="10"/></g><g transform="translate(-286,-110) scale(1,1)"><g><path fill="none" stroke="none"/><text fill="#000000" stroke="none" font-family="Arial" font-size="13px" font-style="normal" font-weight="bold" text-decoration="none" x="808.33642578125" y="396.5">Support</text></g></g><g transform="translate(-286,-110) scale(1,1)"><path fill="none" stroke="#000000" d="M 797 288 L 814 327" stroke-miterlimit="10" stroke-dasharray="3"/></g><g transform="translate(-286,-110) scale(1,1)"><path fill="none" stroke="#000000" d="M 806.0802953531617 319.36597889007066 L 814 327 L 813.7979912337782 316.0018550446737" stroke-miterlimit="10"/></g><g transform="translate(-286,-110) scale(1,1)"><path fill="none" stroke="#000000" d="M 767 288 L 738 327" stroke-miterlimit="10" stroke-dasharray="3"/></g><g transform="translate(-286,-110) scale(1,1)"><path fill="none" stroke="#000000" d="M 740.6861167282577 316.3330052534852 L 738 327 L 747.4420756737516 321.3566670334678" stroke-miterlimit="10"/></g><g transform="translate(-286,-110) scale(1,1)"><path fill="none" stroke="#000000" d="M 548 404 L 680 464 L 967 406" stroke-miterlimit="10"/></g><g transform="translate(-286,-110) scale(1,1)"><path fill="#C0C0C0" stroke="none" d="M 1143 705 L 1248 705 L 1248 741 L 1143 741" opacity="0.2"/></g><g transform="translate(-286,-110) scale(1,1)"><path fill="#C0C0C0" stroke="none" d="M 1143 705 L 1153 695 L 1258 695 L 1248 705" opacity="0.2"/></g><g transform="translate(-286,-110) scale(1,1)"><path fill="#C0C0C0" stroke="none" d="M 1258 695 L 1248 705 L 1248 741 L 1258 731" opacity="0.2"/></g><g transform="translate(-286,-110) scale(1,1)"><path fill="#ffffff" stroke="none" d="M 1136 698 L 1241 698 L 1241 734 L 1136 734"/></g><g transform="translate(-286,-110) scale(1,1)"><path fill="#ffffff" stroke="none" d="M 1136 698 L 1146 688 L 1251 688 L 1241 698"/></g><g transform="translate(-286,-110) scale(1,1)"><path fill="#ffffff" stroke="none" d="M 1251 688 L 1241 698 L 1241 734 L 1251 724"/></g><g transform="translate(-286,-110) scale(1,1)"><path fill="none" stroke="#000000" d="M 1136 698 L 1241 698 L 1241 734 L 1136 734 L 1136 698" stroke-miterlimit="10"/></g><g transform="translate(-286,-110) scale(1,1)"><path fill="none" stroke="#000000" d="M 1136 698 L 1146 688 L 1251 688 L 1241 698 L 1136 698" stroke-miterlimit="10"/></g><g transform="translate(-286,-110) scale(1,1)"><path fill="none" stroke="#000000" d="M 1251 688 L 1241 698 L 1241 734 L 1251 724 L 1251 688" stroke-miterlimit="10"/></g><g transform="translate(-286,-110) scale(1,1)"><g><path fill="none" stroke="none"/><text fill="#000000" stroke="none" font-family="Arial" font-size="13px" font-style="normal" font-weight="normal" text-decoration="none" x="1140.5" y="715.5">«Logs Collector»</text></g></g><g transform="translate(-286,-110) scale(1,1)"><g><path fill="none" stroke="none"/><text fill="#000000" stroke="none" font-family="Arial" font-size="13px" font-style="normal" font-weight="bold" text-decoration="none" x="1172" y="730.5">Kafka</text></g></g><g transform="translate(-286,-110) scale(1,1)"><path fill="#C0C0C0" stroke="none" d="M 887 473 L 1040 473 L 1040 506 L 887 506" opacity="0.2"/></g><g transform="translate(-286,-110) scale(1,1)"><path fill="#C0C0C0" stroke="none" d="M 887 473 L 897 463 L 1050 463 L 1040 473" opacity="0.2"/></g><g transform="translate(-286,-110) scale(1,1)"><path fill="#C0C0C0" stroke="none" d="M 1050 463 L 1040 473 L 1040 506 L 1050 496" opacity="0.2"/></g><g transform="translate(-286,-110) scale(1,1)"><path fill="#ffffff" stroke="none" d="M 880 466 L 1033 466 L 1033 499 L 880 499"/></g><g transform="translate(-286,-110) scale(1,1)"><path fill="#ffffff" stroke="none" d="M 880 466 L 890 456 L 1043 456 L 1033 466"/></g><g transform="translate(-286,-110) scale(1,1)"><path fill="#ffffff" stroke="none" d="M 1043 456 L 1033 466 L 1033 499 L 1043 489"/></g><g transform="translate(-286,-110) scale(1,1)"><path fill="none" stroke="#000000" d="M 880 466 L 1033 466 L 1033 499 L 880 499 L 880 466" stroke-miterlimit="10"/></g><g transform="translate(-286,-110) scale(1,1)"><path fill="none" stroke="#000000" d="M 880 466 L 890 456 L 1043 456 L 1033 466 L 880 466" stroke-miterlimit="10"/></g><g transform="translate(-286,-110) scale(1,1)"><path fill="none" stroke="#000000" d="M 1043 456 L 1033 466 L 1033 499 L 1043 489 L 1043 456" stroke-miterlimit="10"/></g><g transform="translate(-286,-110) scale(1,1)"><g><path fill="none" stroke="none"/><text fill="#000000" stroke="none" font-family="Arial" font-size="13px" font-style="normal" font-weight="bold" text-decoration="none" x="908.5" y="485.5">Event Processor</text></g></g><g transform="translate(-286,-110) scale(1,1)"><path fill="none" stroke="#000000" d="M 1184 687 L 1112 520 L 1121 493" stroke-miterlimit="10"/></g><g transform="translate(-286,-110) scale(1,1)"><path fill="none" stroke="#000000" d="M 1072 413 L 1105 447" stroke-miterlimit="10"/></g><g transform="translate(-286,-110) scale(1,1)"><path fill="none" stroke="#000000" d="M 809 863 L 832 816 L 1135 728" stroke-miterlimit="10"/></g><g transform="translate(-286,-110) scale(1,1)"><path fill="none" stroke="#000000" d="M 580 878 L 1135 727" stroke-miterlimit="10"/></g><g transform="translate(-286,-110) scale(1,1)"><path fill="none" stroke="#000000" d="M 396 881 L 808 808 L 1135 726" stroke-miterlimit="10"/></g><g transform="translate(-286,-110) scale(1,1)"><path fill="none" stroke="#000000" d="M 1117 493 L 1104 520 L 1067 551" stroke-miterlimit="10"/></g><g transform="translate(-286,-110) scale(1,1)"><path fill="#C0C0C0" stroke="none" d="M 1479 705 L 1584 705 L 1584 741 L 1479 741" opacity="0.2"/></g><g transform="translate(-286,-110) scale(1,1)"><path fill="#C0C0C0" stroke="none" d="M 1479 705 L 1489 695 L 1594 695 L 1584 705" opacity="0.2"/></g><g transform="translate(-286,-110) scale(1,1)"><path fill="#C0C0C0" stroke="none" d="M 1594 695 L 1584 705 L 1584 741 L 1594 731" opacity="0.2"/></g><g transform="translate(-286,-110) scale(1,1)"><path fill="#ffffff" stroke="none" d="M 1472 698 L 1577 698 L 1577 734 L 1472 734"/></g><g transform="translate(-286,-110) scale(1,1)"><path fill="#ffffff" stroke="none" d="M 1472 698 L 1482 688 L 1587 688 L 1577 698"/></g><g transform="translate(-286,-110) scale(1,1)"><path fill="#ffffff" stroke="none" d="M 1587 688 L 1577 698 L 1577 734 L 1587 724"/></g><g transform="translate(-286,-110) scale(1,1)"><path fill="none" stroke="#000000" d="M 1472 698 L 1577 698 L 1577 734 L 1472 734 L 1472 698" stroke-miterlimit="10"/></g><g transform="translate(-286,-110) scale(1,1)"><path fill="none" stroke="#000000" d="M 1472 698 L 1482 688 L 1587 688 L 1577 698 L 1472 698" stroke-miterlimit="10"/></g><g transform="translate(-286,-110) scale(1,1)"><path fill="none" stroke="#000000" d="M 1587 688 L 1577 698 L 1577 734 L 1587 724 L 1587 688" stroke-miterlimit="10"/></g><g transform="translate(-286,-110) scale(1,1)"><g><path fill="none" stroke="none"/><text fill="#000000" stroke="none" font-family="Arial" font-size="13px" font-style="normal" font-weight="normal" text-decoration="none" x="1476.5" y="715.5">«Logs Collector»</text></g></g><g transform="translate(-286,-110) scale(1,1)"><g><path fill="none" stroke="none"/><text fill="#000000" stroke="none" font-family="Arial" font-size="13px" font-style="normal" font-weight="bold" text-decoration="none" x="1508" y="730.5">Kafka</text></g></g><g transform="translate(-286,-110) scale(1,1)"><path fill="none" stroke="#000000" d="M 1542 687 L 1652 469" stroke-miterlimit="10"/></g><g transform="translate(-286,-110) scale(1,1)"><path fill="none" stroke="#000000" d="M 1253 711 L 1471 711" stroke-miterlimit="10"/></g><g transform="translate(-286,-110) scale(1,1)"><path fill="none" stroke="#000000" d="M 1551 736 L 1592 784 L 1546 859" stroke-miterlimit="10"/></g><g transform="translate(-286,-110) scale(1,1)"><path fill="none" stroke="#000000" d="M 1557 736 L 1691 859" stroke-miterlimit="10"/></g><g transform="translate(-286,-110) scale(1,1)"><path fill="none" stroke="#000000" d="M 1564 736 L 1608 768 L 1902 871" stroke-miterlimit="10"/></g><g transform="translate(-286,-110) scale(1,1)"><path fill="#C0C0C0" stroke="none" d="M 1751 489 L 1904 489 L 1904 522 L 1751 522" opacity="0.2"/></g><g transform="translate(-286,-110) scale(1,1)"><path fill="#C0C0C0" stroke="none" d="M 1751 489 L 1761 479 L 1914 479 L 1904 489" opacity="0.2"/></g><g transform="translate(-286,-110) scale(1,1)"><path fill="#C0C0C0" stroke="none" d="M 1914 479 L 1904 489 L 1904 522 L 1914 512" opacity="0.2"/></g><g transform="translate(-286,-110) scale(1,1)"><path fill="#ffffff" stroke="none" d="M 1744 482 L 1897 482 L 1897 515 L 1744 515"/></g><g transform="translate(-286,-110) scale(1,1)"><path fill="#ffffff" stroke="none" d="M 1744 482 L 1754 472 L 1907 472 L 1897 482"/></g><g transform="translate(-286,-110) scale(1,1)"><path fill="#ffffff" stroke="none" d="M 1907 472 L 1897 482 L 1897 515 L 1907 505"/></g><g transform="translate(-286,-110) scale(1,1)"><path fill="none" stroke="#000000" d="M 1744 482 L 1897 482 L 1897 515 L 1744 515 L 1744 482" stroke-miterlimit="10"/></g><g transform="translate(-286,-110) scale(1,1)"><path fill="none" stroke="#000000" d="M 1744 482 L 1754 472 L 1907 472 L 1897 482 L 1744 482" stroke-miterlimit="10"/></g><g transform="translate(-286,-110) scale(1,1)"><path fill="none" stroke="#000000" d="M 1907 472 L 1897 482 L 1897 515 L 1907 505 L 1907 472" stroke-miterlimit="10"/></g><g transform="translate(-286,-110) scale(1,1)"><g><path fill="none" stroke="none"/><text fill="#000000" stroke="none" font-family="Arial" font-size="13px" font-style="normal" font-weight="bold" text-decoration="none" x="1772.5" y="501.5">Event Processor</text></g></g><g transform="translate(-286,-110) scale(1,1)"><path fill="none" stroke="#000000" d="M 1756 647 L 1815 517" stroke-miterlimit="10"/></g><g transform="translate(-286,-110) scale(1,1)"><path fill="none" stroke="#000000" d="M 1904 471 L 1939 461" stroke-miterlimit="10"/></g></g></svg>